  0
SECTION
  2
HEADER
  9
$ACADVER
  1
AC1009
  9
$LUNITS
 70
     4
  9
$LUPREC
 70
     5
  0
ENDSEC
  0
SECTION
  2
TABLES
  0
TABLE
  2
LAYER
 70
    32
  0
LAYER
  2
0
 70
    64
 62
     7
  6
CONTINUOUS
  0
LAYER
  2
BORDER
 70
    64
 62
     7
  6
CONTINUOUS
  0
LAYER
  2
BORDERTXT
 70
    64
 62
     7
  6
CONTINUOUS
  0
LAYER
  2
MC-ATT
 70
    65
 62
     7
  6
CONTINUOUS
  0
LAYER
  2
POINT
 70
    64
 62
     5
  6
CONTINUOUS
  0
LAYER
  2
RUN
 70
    64
 62
     5
  6
CONTINUOUS
  0
LAYER
  2
BEND
 70
    64
 62
     5
  6
CONTINUOUS
  0
LAYER
  2
VALVE
 70
    64
 62
    14
  6
CONTINUOUS
  0
LAYER
  2
REDUCER
 70
    64
 62
    13
  6
CONTINUOUS
  0
LAYER
  2
FLXJNT
 70
    64
 62
     4
  6
CONTINUOUS
  0
LAYER
  2
NOZZLE
 70
    64
 62
     4
  6
CONTINUOUS
  0
LAYER
  2
FLANGE
 70
    64
 62
    11
  6
CONTINUOUS
  0
LAYER
  2
ANCHOR
 70
    64
 62
    12
  6
CONTINUOUS
  0
LAYER
  2
SUPPORT
 70
    64
 62
     1
  6
CONTINUOUS
  0
LAYER
  2
FRAME
 70
    64
 62
     1
  6
CONTINUOUS
  0
LAYER
  2
FORCE
 70
    64
 62
     4
  6
CONTINUOUS
  0
LAYER
  2
DISPL
 70
    64
 62
    13
  6
CONTINUOUS
  0
LAYER
  2
WEIGHT
 70
    64
 62
     3
  6
CONTINUOUS
  0
LAYER
  2
PTATT
 70
    64
 62
     7
  6
CONTINUOUS
  0
LAYER
  2
RUNATT
 70
    64
 62
     5
  6
CONTINUOUS
  0
LAYER
  2
BNDATT
 70
    64
 62
     5
  6
CONTINUOUS
  0
LAYER
  2
VALATT
 70
    64
 62
    14
  6
CONTINUOUS
  0
LAYER
  2
REDATT
 70
    64
 62
    13
  6
CONTINUOUS
  0
LAYER
  2
FJATT
 70
    64
 62
     4
  6
CONTINUOUS
  0
LAYER
  2
NZATT
 70
    64
 62
     4
  6
CONTINUOUS
  0
LAYER
  2
FLATT
 70
    64
 62
    11
  6
CONTINUOUS
  0
LAYER
  2
ANCATT
 70
    64
 62
    12
  6
CONTINUOUS
  0
LAYER
  2
SUPATT
 70
    64
 62
     1
  6
CONTINUOUS
  0
LAYER
  2
FRMATT
 70
    64
 62
     1
  6
CONTINUOUS
  0
LAYER
  2
FRCATT
 70
    64
 62
     4
  6
CONTINUOUS
  0
LAYER
  2
DELATT
 70
    64
 62
    13
  6
CONTINUOUS
  0
LAYER
  2
WTATT
 70
    64
 62
     3
  6
CONTINUOUS
  0
ENDTAB
  0
ENDSEC
  0
SECTION
  2
BLOCKS
  0
BLOCK
  8
0
  2
ABORD
 70
    64
 10
0.0
 20
0.0
 30
0.0
  3
ABORD
  0
ATTDEF
  8
0
 10
6.754556
 20
2.228261
 30
0.0
 40
0.1
  1
 
  3
Drawing Scale
  2
SCL
 70
     9
  0
POLYLINE
  8
BORDER
 62
     2
 66
     1
 10
0.0
 20
0.0
 30
0.0
 70
     1
  0
VERTEX
  8
BORDER
 62
     2
 10
9.483982
 20
1.566489
 30
0.0
 42
0.097666
  0
VERTEX
  8
BORDER
 62
     2
 10
9.479992
 20
1.586726
 30
0.0
 42
0.098146
  0
VERTEX
  8
BORDER
 62
     2
 10
9.468655
 20
1.603838
 30
0.0
 42
0.098832
 70
     2
 50
134.734131
  0
VERTEX
  8
BORDER
 62
     2
 10
9.451654
 20
1.615296
 30
0.0
 42
0.099322
 50
134.734131
  0
VERTEX
  8
BORDER
 62
     2
 10
9.431651
 20
1.619309
 30
0.0
 42
0.099322
  0
VERTEX
  8
BORDER
 62
     2
 10
9.411647
 20
1.615296
 30
0.0
 42
0.098832
  0
VERTEX
  8
BORDER
 62
     2
 10
9.394646
 20
1.603838
 30
0.0
 42
0.098146
 70
     2
 50
225.265869
  0
VERTEX
  8
BORDER
 62
     2
 10
9.38331
 20
1.586726
 30
0.0
 42
0.097666
 50
225.265869
  0
VERTEX
  8
BORDER
 62
     2
 10
9.379319
 20
1.566489
 30
0.0
 42
0.097666
  0
VERTEX
  8
BORDER
 62
     2
 10
9.38331
 20
1.546253
 30
0.0
 42
0.098146
  0
VERTEX
  8
BORDER
 62
     2
 10
9.394646
 20
1.52914
 30
0.0
 42
0.098832
 70
     2
 50
314.734131
  0
VERTEX
  8
BORDER
 62
     2
 10
9.411647
 20
1.517683
 30
0.0
 42
0.099322
 50
314.734131
  0
VERTEX
  8
BORDER
 62
     2
 10
9.431651
 20
1.513669
 30
0.0
 42
0.099322
  0
VERTEX
  8
BORDER
 62
     2
 10
9.451654
 20
1.517683
 30
0.0
 42
0.098832
  0
VERTEX
  8
BORDER
 62
     2
 10
9.468655
 20
1.52914
 30
0.0
 42
0.098146
 70
     2
 50
45.265869
  0
VERTEX
  8
BORDER
 62
     2
 10
9.479992
 20
1.546253
 30
0.0
 42
0.097666
 50
45.265869
  0
SEQEND
  8
BORDER
 62
     2
  0
POLYLINE
  8
BORDER
 62
     2
 66
     1
 10
0.0
 20
0.0
 30
0.0
 70
     1
  0
VERTEX
  8
BORDER
 62
     2
 10
9.346492
 20
0.99076
 30
0.0
 42
0.202932
  0
VERTEX
  8
BORDER
 62
     2
 10
9.388014
 20
1.088853
 30
0.0
  0
VERTEX
  8
BORDER
 62
     2
 10
9.388014
 20
1.353158
 30
0.0
 42
0.253438
  0
VERTEX
  8
BORDER
 62
     2
 10
9.352592
 20
1.418553
 30
0.0
  0
VERTEX
  8
BORDER
 62
     2
 10
9.477932
 20
1.418553
 30
0.0
 42
0.127076
  0
VERTEX
  8
BORDER
 62
     2
 10
9.468174
 20
1.38078
 30
0.0
  0
VERTEX
  8
BORDER
 62
     2
 10
9.468174
 20
1.088853
 30
0.0
 42
0.202932
  0
VERTEX
  8
BORDER
 62
     2
 10
9.509697
 20
0.99076
 30
0.0
  0
SEQEND
  8
BORDER
 62
     2
  0
POLYLINE
  8
BORDER
 62
     2
 66
     1
 10
0.0
 20
0.0
 30
0.0
  0
VERTEX
  8
BORDER
 62
     2
 10
10.019556
 20
1.416149
 30
0.0
  0
VERTEX
  8
BORDER
 62
     2
 10
9.991988
 20
1.330329
 30
0.0
 42
0.200698
  0
VERTEX
  8
BORDER
 62
     2
 10
9.672207
 20
1.361822
 30
0.0
 42
0.787639
  0
VERTEX
  8
BORDER
 62
     2
 10
9.678508
 20
1.259468
 30
0.0
 42
0.04774
  0
VERTEX
  8
BORDER
 62
     2
 10
9.826584
 20
1.247658
 30
0.0
 42
-0.087881
  0
VERTEX
  8
BORDER
 62
     2
 10
9.963633
 20
1.225612
 30
0.0
 42
-0.256295
  0
VERTEX
  8
BORDER
 62
     2
 10
10.029007
 20
1.153177
 30
0.0
 42
-0.336114
  0
VERTEX
  8
BORDER
 62
     2
 10
9.972297
 20
1.024841
 30
0.0
 42
-0.196578
  0
VERTEX
  8
BORDER
 62
     2
 10
9.680083
 20
0.990198
 30
0.0
 42
0.042488
  0
VERTEX
  8
BORDER
 62
     2
 10
9.604469
 20
1.00437
 30
0.0
 42
0.181758
  0
VERTEX
  8
BORDER
 62
     2
 10
9.565875
 20
0.994135
 30
0.0
  0
VERTEX
  8
BORDER
 62
     2
 10
9.531219
 20
1.113023
 30
0.0
 42
0.122342
  0
VERTEX
  8
BORDER
 62
     2
 10
9.811619
 20
1.042162
 30
0.0
 42
0.172117
  0
VERTEX
  8
BORDER
 62
     2
 10
9.935278
 20
1.085466
 30
0.0
 42
0.130804
  0
VERTEX
  8
BORDER
 62
     2
 10
9.943942
 20
1.097276
 30
0.0
 42
0.228665
  0
VERTEX
  8
BORDER
 62
     2
 10
9.940004
 20
1.148453
 30
0.0
 42
0.176728
  0
VERTEX
  8
BORDER
 62
     2
 10
9.911649
 20
1.172073
 30
0.0
 42
0.071856
  0
VERTEX
  8
BORDER
 62
     2
 10
9.873055
 20
1.179947
 30
0.0
 42
0.00793
  0
VERTEX
  8
BORDER
 62
     2
 10
9.760422
 20
1.184671
 30
0.0
 42
-0.062713
  0
VERTEX
  8
BORDER
 62
     2
 10
9.62101
 20
1.205929
 30
0.0
 42
-0.555392
  0
VERTEX
  8
BORDER
 62
     2
 10
9.572964
 20
1.372845
 30
0.0
 42
-0.117025
  0
VERTEX
  8
BORDER
 62
     2
 10
9.639126
 20
1.418511
 30
0.0
 42
-0.065621
  0
VERTEX
  8
BORDER
 62
     2
 10
9.716314
 20
1.437407
 30
0.0
 42
-0.09545
  0
VERTEX
  8
BORDER
 62
     2
 10
9.967571
 20
1.416936
 30
0.0
 42
0.128944
  0
VERTEX
  8
BORDER
 62
     2
 10
10.019556
 20
1.416149
 30
0.0
 42
-0.40199
  0
SEQEND
  8
BORDER
 62
     2
  0
POLYLINE
  8
BORDER
 62
     2
 66
     1
 10
0.0
 20
0.0
 30
0.0
  0
VERTEX
  8
BORDER
 62
     2
 10
8.270848
 20
1.238717
 30
0.0
  0
VERTEX
  8
BORDER
 62
     2
 10
8.644145
 20
1.238717
 30
0.0
 42
0.272722
  0
VERTEX
  8
BORDER
 62
     2
 10
8.578413
 20
1.350264
 30
0.0
 42
0.258438
  0
VERTEX
  8
BORDER
 62
     2
 10
8.33829
 20
1.350264
 30
0.0
 42
0.266656
  0
VERTEX
  8
BORDER
 62
     2
 10
8.270848
 20
1.238717
 30
0.0
 42
-0.250381
  0
SEQEND
  8
BORDER
 62
     2
  0
POLYLINE
  8
BORDER
 62
     2
 66
     1
 10
0.0
 20
0.0
 30
0.0
 70
     1
  0
VERTEX
  8
BORDER
 62
     2
 10
8.698641
 20
1.096112
 30
0.0
 42
-0.125712
  0
VERTEX
  8
BORDER
 62
     2
 10
8.471064
 20
1.043164
 30
0.0
 42
-0.042079
  0
VERTEX
  8
BORDER
 62
     2
 10
8.37784
 20
1.053048
 30
0.0
 42
-0.119492
  0
VERTEX
  8
BORDER
 62
     2
 10
8.329815
 20
1.074933
 30
0.0
 42
-0.004554
  0
VERTEX
  8
BORDER
 62
     2
 10
8.308628
 20
1.091877
 30
0.0
 42
-0.230351
  0
VERTEX
  8
BORDER
 62
     2
 10
8.270848
 20
1.173322
 30
0.0
  0
VERTEX
  8
BORDER
 62
     2
 10
8.706815
 20
1.173322
 30
0.0
 42
-0.104231
  0
VERTEX
  8
BORDER
 62
     2
 10
8.728137
 20
1.168828
 30
0.0
  0
VERTEX
  8
BORDER
 62
     2
 10
8.728137
 20
1.222482
 30
0.0
 42
0.311025
  0
VERTEX
  8
BORDER
 62
     2
 10
8.593951
 20
1.417331
 30
0.0
 42
0.184365
  0
VERTEX
  8
BORDER
 62
     2
 10
8.320634
 20
1.417331
 30
0.0
 42
0.215012
  0
VERTEX
  8
BORDER
 62
     2
 10
8.203397
 20
1.299433
 30
0.0
 42
0.181459
  0
VERTEX
  8
BORDER
 62
     2
 10
8.203397
 20
1.109526
 30
0.0
 42
0.16298
  0
VERTEX
  8
BORDER
 62
     2
 10
8.261309
 20
1.038223
 30
0.0
 42
0.104074
  0
VERTEX
  8
BORDER
 62
     2
 10
8.415977
 20
0.980333
 30
0.0
 42
0.075515
  0
VERTEX
  8
BORDER
 62
     2
 10
8.510614
 20
0.980333
 30
0.0
 42
0.001703
  0
VERTEX
  8
BORDER
 62
     2
 10
8.646919
 20
1.001512
 30
0.0
 42
-0.104043
  0
VERTEX
  8
BORDER
 62
     2
 10
8.698641
 20
0.998935
 30
0.0
  0
SEQEND
  8
BORDER
 62
     2
  0
POLYLINE
  8
BORDER
 62
     2
 66
     1
 10
0.0
 20
0.0
 30
0.0
  0
VERTEX
  8
BORDER
 62
     2
 10
7.804908
 20
0.993485
 30
0.0
  0
VERTEX
  8
BORDER
 62
     2
 10
7.954771
 20
0.993485
 30
0.0
 42
-0.205258
  0
VERTEX
  8
BORDER
 62
     2
 10
7.922074
 20
1.069779
 30
0.0
  0
VERTEX
  8
BORDER
 62
     2
 10
7.922074
 20
1.211469
 30
0.0
 42
0.008437
  0
VERTEX
  8
BORDER
 62
     2
 10
7.92553
 20
1.241828
 30
0.0
 42
-0.402584
  0
VERTEX
  8
BORDER
 62
     2
 10
8.080662
 20
1.37486
 30
0.0
 42
-0.11855
  0
VERTEX
  8
BORDER
 62
     2
 10
8.195633
 20
1.340224
 30
0.0
  0
VERTEX
  8
BORDER
 62
     2
 10
8.214533
 20
1.425239
 30
0.0
 42
-0.120179
  0
VERTEX
  8
BORDER
 62
     2
 10
8.181459
 20
1.426813
 30
0.0
 42
0.144379
  0
VERTEX
  8
BORDER
 62
     2
 10
8.001915
 20
1.426813
 30
0.0
 42
0.180901
  0
VERTEX
  8
BORDER
 62
     2
 10
7.922074
 20
1.366782
 30
0.0
  0
VERTEX
  8
BORDER
 62
     2
 10
7.913899
 20
1.374956
 30
0.0
  0
VERTEX
  8
BORDER
 62
     2
 10
7.913899
 20
1.434902
 30
0.0
 42
-0.126933
  0
VERTEX
  8
BORDER
 62
     2
 10
7.882219
 20
1.426728
 30
0.0
  0
VERTEX
  8
BORDER
 62
     2
 10
7.804908
 20
1.426728
 30
0.0
 42
-0.205258
  0
VERTEX
  8
BORDER
 62
     2
 10
7.837605
 20
1.350433
 30
0.0
  0
VERTEX
  8
BORDER
 62
     2
 10
7.837605
 20
1.069779
 30
0.0
 42
-0.205258
  0
VERTEX
  8
BORDER
 62
     2
 10
7.804908
 20
0.993485
 30
0.0
  0
VERTEX
  8
BORDER
 62
     2
 10
7.954771
 20
0.993485
 30
0.0
  0
SEQEND
  8
BORDER
 62
     2
  0
TEXT
  8
BORDERTXT
 62
     2
 10
7.413225
 20
0.199417
 30
0.0
 40
0.181125
  1
(925) 933-2525
 72
     1
 11
8.530161
 21
0.199417
 31
0.0
  0
POLYLINE
  8
BORDER
 62
     2
 66
     1
 10
0.0
 20
0.0
 30
0.0
 70
     1
  0
VERTEX
  8
BORDER
 62
     2
 10
8.886363
 20
1.609289
 30
0.0
  0
VERTEX
  8
BORDER
 62
     2
 10
8.750661
 20
1.609289
 30
0.0
 42
-0.248738
  0
VERTEX
  8
BORDER
 62
     2
 10
8.794008
 20
1.527545
 30
0.0
  0
VERTEX
  8
BORDER
 62
     2
 10
8.794008
 20
1.078367
 30
0.0
 42
-0.23507
  0
VERTEX
  8
BORDER
 62
     2
 10
8.750412
 20
0.99076
 30
0.0
  0
VERTEX
  8
BORDER
 62
     2
 10
8.828978
 20
0.99076
 30
0.0
 42
0.358232
  0
VERTEX
  8
BORDER
 62
     2
 10
8.862128
 20
1.018008
 30
0.0
  0
VERTEX
  8
BORDER
 62
     2
 10
8.862128
 20
1.042531
 30
0.0
  0
VERTEX
  8
BORDER
 62
     2
 10
8.866496
 20
1.046016
 30
0.0
 42
0.155153
  0
VERTEX
  8
BORDER
 62
     2
 10
8.972772
 20
0.986939
 30
0.0
 42
0.100081
  0
VERTEX
  8
BORDER
 62
     2
 10
9.139975
 20
0.986939
 30
0.0
 42
0.367502
  0
VERTEX
  8
BORDER
 62
     2
 10
9.321509
 20
1.217523
 30
0.0
 42
0.103451
  0
VERTEX
  8
BORDER
 62
     2
 10
9.28591
 20
1.334179
 30
0.0
 42
0.185145
  0
VERTEX
  8
BORDER
 62
     2
 10
9.207427
 20
1.407174
 30
0.0
 42
0.085882
  0
VERTEX
  8
BORDER
 62
     2
 10
9.066269
 20
1.439919
 30
0.0
 42
0.21048
  0
VERTEX
  8
BORDER
 62
     2
 10
8.875752
 20
1.368041
 30
0.0
  0
VERTEX
  8
BORDER
 62
     2
 10
8.875752
 20
1.595665
 30
0.0
 42
-0.343482
  0
SEQEND
  8
BORDER
 62
     2
  0
POLYLINE
  8
BORDER
 62
     2
 66
     1
 10
0.0
 20
0.0
 30
0.0
 70
     1
  0
VERTEX
  8
BORDER
 62
     2
 10
9.057609
 20
1.375641
 30
0.0
 42
-0.093134
  0
VERTEX
  8
BORDER
 62
     2
 10
9.156658
 20
1.35703
 30
0.0
 42
-0.259415
  0
VERTEX
  8
BORDER
 62
     2
 10
9.231875
 20
1.266208
 30
0.0
 42
-0.092287
  0
VERTEX
  8
BORDER
 62
     2
 10
9.231875
 20
1.161986
 30
0.0
 42
-0.120341
  0
VERTEX
  8
BORDER
 62
     2
 10
9.208044
 20
1.10913
 30
0.0
 42
-0.193076
  0
VERTEX
  8
BORDER
 62
     2
 10
9.097824
 20
1.045108
 30
0.0
 42
-0.142578
  0
VERTEX
  8
BORDER
 62
     2
 10
8.94292
 20
1.066697
 30
0.0
 42
-0.215684
  0
VERTEX
  8
BORDER
 62
     2
 10
8.880363
 20
1.137419
 30
0.0
 42
-0.198402
  0
VERTEX
  8
BORDER
 62
     2
 10
8.895258
 20
1.298219
 30
0.0
 42
-0.142447
  0
VERTEX
  8
BORDER
 62
     2
 10
8.934728
 20
1.339163
 30
0.0
 42
0.026705
  0
VERTEX
  8
BORDER
 62
     2
 10
8.960049
 20
1.355541
 30
0.0
 42
-0.110202
  0
VERTEX
  8
BORDER
 62
     2
 10
8.987604
 20
1.367452
 30
0.0
 42
-0.036038
  0
SEQEND
  8
BORDER
 62
     2
  0
TEXT
  8
BORDERTXT
 62
     2
 10
6.738494
 20
0.685171
 30
0.0
 40
0.125
  1
INDUSTRIAL WORKGROUP SOFTWARE
 72
     1
 11
8.530161
 21
0.685171
 31
0.0
  0
POLYLINE
  8
BORDER
 62
     2
 66
     1
 10
0.0
 20
0.0
 30
0.0
 70
     1
  0
VERTEX
  8
BORDER
 62
     2
 10
10.161856
 20
0.941714
 30
0.0
  0
VERTEX
  8
BORDER
 62
     2
 10
6.892101
 20
0.941714
 30
0.0
  0
VERTEX
  8
BORDER
 62
     2
 10
6.892101
 20
1.800025
 30
0.0
 50
134.734131
  0
VERTEX
  8
BORDER
 62
     2
 10
10.161856
 20
1.800025
 30
0.0
 50
134.734131
  0
SEQEND
  8
BORDER
 62
     2
  0
POLYLINE
  8
BORDER
 62
     2
 66
     1
 10
0.0
 20
0.0
 30
0.0
 70
     1
  0
VERTEX
  8
BORDER
 62
     2
 10
7.389767
 20
0.993485
 30
0.0
  0
VERTEX
  8
BORDER
 62
     2
 10
6.927597
 20
0.993485
 30
0.0
  0
VERTEX
  8
BORDER
 62
     2
 10
6.927597
 20
1.768502
 30
0.0
  0
VERTEX
  8
BORDER
 62
     2
 10
7.70409
 20
1.768502
 30
0.0
  0
VERTEX
  8
BORDER
 62
     2
 10
7.70409
 20
0.993485
 30
0.0
  0
VERTEX
  8
BORDER
 62
     2
 10
7.581474
 20
0.993485
 30
0.0
  0
VERTEX
  8
BORDER
 62
     2
 10
7.379202
 20
1.349374
 30
0.0
 42
0.625792
  0
VERTEX
  8
BORDER
 62
     2
 10
7.189104
 20
1.740449
 30
0.0
  0
VERTEX
  8
BORDER
 62
     2
 10
6.957459
 20
1.740449
 30
0.0
  0
VERTEX
  8
BORDER
 62
     2
 10
6.957459
 20
1.024263
 30
0.0
  0
VERTEX
  8
BORDER
 62
     2
 10
7.189358
 20
1.024263
 30
0.0
  0
VERTEX
  8
BORDER
 62
     2
 10
7.189358
 20
1.369193
 30
0.0
 42
-0.430956
  0
VERTEX
  8
BORDER
 62
     2
 10
7.068345
 20
1.483517
 30
0.0
 42
-1.0
  0
VERTEX
  8
BORDER
 62
     2
 10
7.297364
 20
1.483517
 30
0.0
 42
-0.319544
  0
VERTEX
  8
BORDER
 62
     2
 10
7.220354
 20
1.375322
 30
0.0
  0
SEQEND
  8
BORDER
 62
     2
  0
INSERT
  8
BORDER
 62
     2
  2
*X23
 10
-0.011712
 20
-0.011698
 30
0.0
1001
ACAD
1000
HATCH
1002
{
1070
    16
1000
_U
1040
0.025
1040
0.785398
1070
     0
1002
}
  0
INSERT
  8
MC-ATT
  2
BOMST_LL
 10
0.161442
 20
1.988302
 30
0.0
  0
INSERT
  8
MC-ATT
  2
BOMST_LR
 10
10.488288
 20
1.988302
 30
0.0
  0
INSERT
  8
MC-ATT
  2
BOMPU_LR
 10
10.488288
 20
1.988302
 30
0.0
  0
INSERT
  8
MC-ATT
  2
BOMPU_LL
 10
0.697942
 20
1.988302
 30
0.0
  0
INSERT
  8
MC-ATT
  2
BOMIN_LR
 10
10.488288
 20
1.988302
 30
0.0
  0
INSERT
  8
MC-ATT
  2
BOMIN_LL
 10
0.161442
 20
1.988302
 30
0.0
  0
INSERT
  8
MC-ATT
  2
BOMMA_LL
 10
0.161442
 20
1.988302
 30
0.0
  0
INSERT
  8
MC-ATT
  2
BOMMA_LR
 10
10.488288
 20
1.988302
 30
0.0
  0
INSERT
  8
MC-ATT
  2
BOMMU
 10
0.161442
 20
7.988302
 30
0.0
  0
INSERT
  8
MC-ATT
  2
BOMIN
 10
0.161442
 20
7.988302
 30
0.0
  0
INSERT
  8
MC-ATT
  2
BOMMA
 10
0.161442
 20
7.988302
 30
0.0
  0
INSERT
  8
MC-ATT
  2
BOMPU
 10
0.697942
 20
7.988302
 30
0.0
  0
INSERT
  8
MC-ATT
  2
BOMST
 10
0.161442
 20
7.988302
 30
0.0
  0
INSERT
  8
MC-ATT
  2
BOMST_UL
 10
0.161442
 20
7.988302
 30
0.0
  0
INSERT
  8
MC-ATT
  2
BOMST_UR
 10
10.488288
 20
7.988302
 30
0.0
  0
INSERT
  8
MC-ATT
  2
BOMPU_UL
 10
0.697942
 20
7.988302
 30
0.0
  0
INSERT
  8
MC-ATT
  2
BOMPU_UR
 10
10.488288
 20
7.988302
 30
0.0
  0
INSERT
  8
MC-ATT
  2
BOMIN_UL
 10
0.161442
 20
7.988302
 30
0.0
  0
INSERT
  8
MC-ATT
  2
BOMIN_UR
 10
10.488288
 20
7.988302
 30
0.0
  0
INSERT
  8
MC-ATT
  2
BOMMA_UL
 10
0.161442
 20
7.988302
 30
0.0
  0
INSERT
  8
MC-ATT
  2
BOMMA_UR
 10
10.488288
 20
7.988302
 30
0.0
  0
INSERT
  8
MC-ATT
  2
DIRINS
 10
1.51822
 20
6.464798
 30
0.0
  0
INSERT
  8
MC-ATT
  2
ISOINS
 10
3.234122
 20
3.988302
 30
0.0
  0
LINE
  8
BORDER
 10
10.488288
 20
1.988302
 30
0.0
 11
6.559717
 21
1.988302
 31
0.0
  0
LINE
  8
BORDER
 10
6.559717
 20
1.988302
 30
0.0
 11
6.559717
 21
-0.011698
 31
0.0
  0
LINE
  8
BORDER
 10
-0.011712
 20
-0.011698
 30
0.0
 11
10.488288
 21
-0.011698
 31
0.0
  0
LINE
  8
BORDER
 10
10.488288
 20
-0.011698
 30
0.0
 11
10.488288
 21
7.988302
 31
0.0
  0
LINE
  8
BORDER
 10
10.488288
 20
7.988302
 30
0.0
 11
-0.011712
 21
7.988302
 31
0.0
  0
LINE
  8
BORDER
 10
-0.011712
 20
7.988302
 30
0.0
 11
-0.011712
 21
-0.011698
 31
0.0
  0
ENDBLK
  8
0
  0
BLOCK
  8
0
  2
BOMMA
 70
    64
 10
0.0
 20
0.0
 30
0.0
  3
BOMMA
  0
POINT
  8
MC-ATT
 10
0.0
 20
0.0
 30
0.0
  0
ENDBLK
  8
0
  0
BLOCK
  8
0
  2
ISOINS
 70
    64
 10
0.0
 20
0.0
 30
0.0
  3
ISOINS
  0
POINT
  8
MC-ATT
 10
0.0
 20
0.0
 30
0.0
  0
ENDBLK
  8
0
  0
BLOCK
  8
0
  2
BOMST
 70
    64
 10
0.0
 20
0.0
 30
0.0
  3
BOMST
  0
POINT
  8
MC-ATT
 10
0.0
 20
0.0
 30
0.0
  0
ENDBLK
  8
0
  0
BLOCK
  8
0
  2
BOMPU
 70
    64
 10
0.0
 20
0.0
 30
0.0
  3
BOMPU
  0
POINT
  8
MC-ATT
 10
0.0
 20
0.0
 30
0.0
  0
ENDBLK
  8
0
  0
BLOCK
  8
0
  2
BOMIN
 70
    64
 10
0.0
 20
0.0
 30
0.0
  3
BOMIN
  0
POINT
  8
MC-ATT
 10
0.0
 20
0.0
 30
0.0
  0
ENDBLK
  8
0
  0
BLOCK
  8
0
  2
BOMMU
 70
    64
 10
0.0
 20
0.0
 30
0.0
  3
BOMMU
  0
POINT
  8
MC-ATT
 10
0.0
 20
0.0
 30
0.0
  0
ENDBLK
  8
0
  0
BLOCK
  8
0
  2
DIRINS
 70
    64
 10
0.0
 20
0.0
 30
0.0
  3
DIRINS
  0
POINT
  8
MC-ATT
 10
0.0
 20
0.0
 30
0.0
  0
ENDBLK
  8
0
  0
BLOCK
  8
0
  2
BOMST_UL
 70
    64
 10
0.0
 20
0.0
 30
0.0
  3
BOMST_UL
  0
POINT
  8
MC-ATT
 10
0.0
 20
0.0
 30
0.0
  0
ENDBLK
  8
0
  0
BLOCK
  8
0
  2
BOMST_LL
 70
    64
 10
0.0
 20
0.0
 30
0.0
  3
BOMST_LL
  0
POINT
  8
MC-ATT
 10
0.0
 20
0.0
 30
0.0
  0
ENDBLK
  8
0
  0
BLOCK
  8
0
  2
BOMST_UR
 70
    64
 10
0.0
 20
0.0
 30
0.0
  3
BOMST_UR
  0
POINT
  8
MC-ATT
 10
0.0
 20
0.0
 30
0.0
  0
ENDBLK
  8
0
  0
BLOCK
  8
0
  2
BOMST_LR
 70
    64
 10
0.0
 20
0.0
 30
0.0
  3
BOMST_LR
  0
POINT
  8
MC-ATT
 10
0.0
 20
0.0
 30
0.0
  0
ENDBLK
  8
0
  0
BLOCK
  8
0
  2
BOMPU_UL
 70
    64
 10
0.0
 20
0.0
 30
0.0
  3
BOMPU_UL
  0
POINT
  8
MC-ATT
 10
0.0
 20
0.0
 30
0.0
  0
ENDBLK
  8
0
  0
BLOCK
  8
0
  2
BOMPU_UR
 70
    64
 10
0.0
 20
0.0
 30
0.0
  3
BOMPU_UR
  0
POINT
  8
MC-ATT
 10
0.0
 20
0.0
 30
0.0
  0
ENDBLK
  8
0
  0
BLOCK
  8
0
  2
BOMPU_LR
 70
    64
 10
0.0
 20
0.0
 30
0.0
  3
BOMPU_LR
  0
POINT
  8
MC-ATT
 10
0.0
 20
0.0
 30
0.0
  0
ENDBLK
  8
0
  0
BLOCK
  8
0
  2
BOMPU_LL
 70
    64
 10
0.0
 20
0.0
 30
0.0
  3
BOMPU_LL
  0
POINT
  8
MC-ATT
 10
0.0
 20
0.0
 30
0.0
  0
ENDBLK
  8
0
  0
BLOCK
  8
0
  2
BOMMA_UL
 70
    64
 10
0.0
 20
0.0
 30
0.0
  3
BOMMA_UL
  0
POINT
  8
MC-ATT
 10
0.0
 20
0.0
 30
0.0
  0
ENDBLK
  8
0
  0
BLOCK
  8
0
  2
BOMMA_UR
 70
    64
 10
0.0
 20
0.0
 30
0.0
  3
BOMMA_UR
  0
POINT
  8
MC-ATT
 10
0.0
 20
0.0
 30
0.0
  0
ENDBLK
  8
0
  0
BLOCK
  8
0
  2
BOMMA_LR
 70
    64
 10
0.0
 20
0.0
 30
0.0
  3
BOMMA_LR
  0
POINT
  8
MC-ATT
 10
0.0
 20
0.0
 30
0.0
  0
ENDBLK
  8
0
  0
BLOCK
  8
0
  2
BOMMA_LL
 70
    64
 10
0.0
 20
0.0
 30
0.0
  3
BOMMA_LL
  0
POINT
  8
MC-ATT
 10
0.0
 20
0.0
 30
0.0
  0
ENDBLK
  8
0
  0
BLOCK
  8
0
  2
BOMIN_UL
 70
    64
 10
0.0
 20
0.0
 30
0.0
  3
BOMIN_UL
  0
POINT
  8
MC-ATT
 10
0.0
 20
0.0
 30
0.0
  0
ENDBLK
  8
0
  0
BLOCK
  8
0
  2
BOMIN_UR
 70
    64
 10
0.0
 20
0.0
 30
0.0
  3
BOMIN_UR
  0
POINT
  8
MC-ATT
 10
0.0
 20
0.0
 30
0.0
  0
ENDBLK
  8
0
  0
BLOCK
  8
0
  2
BOMIN_LR
 70
    64
 10
0.0
 20
0.0
 30
0.0
  3
BOMIN_LR
  0
POINT
  8
MC-ATT
 10
0.0
 20
0.0
 30
0.0
  0
ENDBLK
  8
0
  0
BLOCK
  8
0
  2
BOMIN_LL
 70
    64
 10
0.0
 20
0.0
 30
0.0
  3
BOMIN_LL
  0
POINT
  8
MC-ATT
 10
0.0
 20
0.0
 30
0.0
  0
ENDBLK
  8
0
  0
BLOCK
  8
0
  2
*X23
 70
    65
 10
0.0
 20
0.0
 30
0.0
  3
*X
  0
LINE
  8
0
 62
     0
 10
8.209349
 20
1.138281
 30
0.0
 11
8.321482
 21
1.250414
 31
0.0
  0
LINE
  8
0
 62
     0
 10
8.463983
 20
1.392915
 30
0.0
 11
8.521657
 21
1.45059
 31
0.0
  0
LINE
  8
0
 62
     0
 10
8.202442
 20
1.166729
 30
0.0
 11
8.286127
 21
1.250414
 31
0.0
  0
LINE
  8
0
 62
     0
 10
8.424472
 20
1.388759
 30
0.0
 11
8.489394
 21
1.453681
 31
0.0
  0
LINE
  8
0
 62
     0
 10
8.198483
 20
1.198126
 30
0.0
 11
8.289263
 21
1.288906
 31
0.0
  0
LINE
  8
0
 62
     0
 10
8.373946
 20
1.373589
 30
0.0
 11
8.454299
 21
1.453942
 31
0.0
  0
LINE
  8
0
 62
     0
 10
8.19843
 20
1.233429
 30
0.0
 11
8.415468
 21
1.450466
 31
0.0
  0
LINE
  8
0
 62
     0
 10
8.204276
 20
1.27463
 30
0.0
 11
8.371172
 21
1.441526
 31
0.0
  0
LINE
  8
0
 62
     0
 10
8.222364
 20
1.328073
 30
0.0
 11
8.316468
 21
1.422177
 31
0.0
  0
LINE
  8
0
 62
     0
 10
7.864119
 20
1.005183
 30
0.0
 11
7.933982
 21
1.075046
 31
0.0
  0
LINE
  8
0
 62
     0
 10
8.186451
 20
1.362871
 30
0.0
 11
8.216448
 21
1.392867
 31
0.0
  0
LINE
  8
0
 62
     0
 10
7.846797
 20
1.058572
 30
0.0
 11
7.933786
 21
1.145561
 31
0.0
  0
LINE
  8
0
 62
     0
 10
8.161266
 20
1.373041
 30
0.0
 11
8.224918
 21
1.436693
 31
0.0
  0
LINE
  8
0
 62
     0
 10
7.849317
 20
1.096447
 30
0.0
 11
7.933786
 21
1.180916
 31
0.0
  0
LINE
  8
0
 62
     0
 10
8.133692
 20
1.380822
 30
0.0
 11
8.191786
 21
1.438916
 31
0.0
  0
LINE
  8
0
 62
     0
 10
7.849317
 20
1.131803
 30
0.0
 11
7.933786
 21
1.216271
 31
0.0
  0
LINE
  8
0
 62
     0
 10
8.103226
 20
1.385712
 30
0.0
 11
8.163285
 21
1.445771
 31
0.0
  0
LINE
  8
0
 62
     0
 10
7.687342
 20
1.005183
 30
0.0
 11
7.715802
 21
1.033643
 31
0.0
  0
LINE
  8
0
 62
     0
 10
8.068089
 20
1.38593
 30
0.0
 11
8.132312
 21
1.450153
 31
0.0
  0
LINE
  8
0
 62
     0
 10
7.849317
 20
1.167158
 30
0.0
 11
7.93742
 21
1.255261
 31
0.0
  0
LINE
  8
0
 62
     0
 10
7.651987
 20
1.005183
 30
0.0
 11
7.715802
 21
1.068998
 31
0.0
  0
LINE
  8
0
 62
     0
 10
8.017979
 20
1.371175
 30
0.0
 11
8.098234
 21
1.45143
 31
0.0
  0
LINE
  8
0
 62
     0
 10
7.849317
 20
1.202513
 30
0.0
 11
7.952175
 21
1.305371
 31
0.0
  0
LINE
  8
0
 62
     0
 10
7.616631
 20
1.005183
 30
0.0
 11
7.715802
 21
1.104354
 31
0.0
  0
LINE
  8
0
 62
     0
 10
7.849317
 20
1.237869
 30
0.0
 11
8.05993
 21
1.448481
 31
0.0
  0
LINE
  8
0
 62
     0
 10
7.58887
 20
1.012777
 30
0.0
 11
7.715802
 21
1.139709
 31
0.0
  0
LINE
  8
0
 62
     0
 10
7.849317
 20
1.273224
 30
0.0
 11
8.015008
 21
1.438915
 31
0.0
  0
LINE
  8
0
 62
     0
 10
7.576058
 20
1.03532
 30
0.0
 11
7.715802
 21
1.175064
 31
0.0
  0
LINE
  8
0
 62
     0
 10
7.849317
 20
1.308579
 30
0.0
 11
7.926502
 21
1.385764
 31
0.0
  0
LINE
  8
0
 62
     0
 10
7.563245
 20
1.057863
 30
0.0
 11
7.715802
 21
1.21042
 31
0.0
  0
LINE
  8
0
 62
     0
 10
7.849317
 20
1.343935
 30
0.0
 11
7.925611
 21
1.420229
 31
0.0
  0
LINE
  8
0
 62
     0
 10
7.550433
 20
1.080406
 30
0.0
 11
7.715802
 21
1.245775
 31
0.0
  0
LINE
  8
0
 62
     0
 10
7.848104
 20
1.378076
 30
0.0
 11
7.910613
 21
1.440586
 31
0.0
  0
LINE
  8
0
 62
     0
 10
7.53762
 20
1.102949
 30
0.0
 11
7.715802
 21
1.28113
 31
0.0
  0
LINE
  8
0
 62
     0
 10
7.840038
 20
1.405366
 30
0.0
 11
7.873097
 21
1.438425
 31
0.0
  0
LINE
  8
0
 62
     0
 10
7.524808
 20
1.125491
 30
0.0
 11
7.715802
 21
1.316486
 31
0.0
  0
LINE
  8
0
 62
     0
 10
7.826688
 20
1.427371
 30
0.0
 11
7.837742
 21
1.438425
 31
0.0
  0
LINE
  8
0
 62
     0
 10
7.369144
 20
1.005183
 30
0.0
 11
7.391542
 21
1.027581
 31
0.0
  0
LINE
  8
0
 62
     0
 10
7.511995
 20
1.148034
 30
0.0
 11
7.715802
 21
1.351841
 31
0.0
  0
LINE
  8
0
 62
     0
 10
7.333788
 20
1.005183
 30
0.0
 11
7.380676
 21
1.05207
 31
0.0
  0
LINE
  8
0
 62
     0
 10
7.499183
 20
1.170577
 30
0.0
 11
7.715802
 21
1.387196
 31
0.0
  0
LINE
  8
0
 62
     0
 10
7.298433
 20
1.005183
 30
0.0
 11
7.36981
 21
1.07656
 31
0.0
  0
LINE
  8
0
 62
     0
 10
7.48637
 20
1.19312
 30
0.0
 11
7.715802
 21
1.422552
 31
0.0
  0
LINE
  8
0
 62
     0
 10
7.263078
 20
1.005183
 30
0.0
 11
7.358945
 21
1.10105
 31
0.0
  0
LINE
  8
0
 62
     0
 10
7.473558
 20
1.215663
 30
0.0
 11
7.715802
 21
1.457907
 31
0.0
  0
LINE
  8
0
 62
     0
 10
7.227722
 20
1.005183
 30
0.0
 11
7.348079
 21
1.12554
 31
0.0
  0
LINE
  8
0
 62
     0
 10
7.460746
 20
1.238206
 30
0.0
 11
7.715802
 21
1.493262
 31
0.0
  0
LINE
  8
0
 62
     0
 10
7.192367
 20
1.005183
 30
0.0
 11
7.337214
 21
1.150029
 31
0.0
  0
LINE
  8
0
 62
     0
 10
7.447933
 20
1.260749
 30
0.0
 11
7.715802
 21
1.528618
 31
0.0
  0
LINE
  8
0
 62
     0
 10
7.157012
 20
1.005183
 30
0.0
 11
7.187789
 21
1.03596
 31
0.0
  0
LINE
  8
0
 62
     0
 10
7.435121
 20
1.283292
 30
0.0
 11
7.715802
 21
1.563973
 31
0.0
  0
LINE
  8
0
 62
     0
 10
7.20107
 20
1.049241
 30
0.0
 11
7.326348
 21
1.174519
 31
0.0
  0
LINE
  8
0
 62
     0
 10
7.121656
 20
1.005183
 30
0.0
 11
7.152434
 21
1.03596
 31
0.0
  0
LINE
  8
0
 62
     0
 10
7.422308
 20
1.305835
 30
0.0
 11
7.715802
 21
1.599328
 31
0.0
  0
LINE
  8
0
 62
     0
 10
7.20107
 20
1.084596
 30
0.0
 11
7.315483
 21
1.199009
 31
0.0
  0
LINE
  8
0
 62
     0
 10
7.086301
 20
1.005183
 30
0.0
 11
7.117079
 21
1.03596
 31
0.0
  0
LINE
  8
0
 62
     0
 10
7.409496
 20
1.328378
 30
0.0
 11
7.715802
 21
1.634684
 31
0.0
  0
LINE
  8
0
 62
     0
 10
7.20107
 20
1.119951
 30
0.0
 11
7.304617
 21
1.223499
 31
0.0
  0
LINE
  8
0
 62
     0
 10
7.050946
 20
1.005183
 30
0.0
 11
7.081723
 21
1.03596
 31
0.0
  0
LINE
  8
0
 62
     0
 10
7.396683
 20
1.35092
 30
0.0
 11
7.715802
 21
1.670039
 31
0.0
  0
LINE
  8
0
 62
     0
 10
7.20107
 20
1.155307
 30
0.0
 11
7.293752
 21
1.247989
 31
0.0
  0
LINE
  8
0
 62
     0
 10
7.01559
 20
1.005183
 30
0.0
 11
7.046368
 21
1.03596
 31
0.0
  0
LINE
  8
0
 62
     0
 10
7.420976
 20
1.410568
 30
0.0
 11
7.715802
 21
1.705394
 31
0.0
  0
LINE
  8
0
 62
     0
 10
7.20107
 20
1.190662
 30
0.0
 11
7.282886
 21
1.272478
 31
0.0
  0
LINE
  8
0
 62
     0
 10
6.980235
 20
1.005183
 30
0.0
 11
7.011013
 21
1.03596
 31
0.0
  0
LINE
  8
0
 62
     0
 10
7.437814
 20
1.462762
 30
0.0
 11
7.715802
 21
1.74075
 31
0.0
  0
LINE
  8
0
 62
     0
 10
7.20107
 20
1.226017
 30
0.0
 11
7.27202
 21
1.296968
 31
0.0
  0
LINE
  8
0
 62
     0
 10
6.94488
 20
1.005183
 30
0.0
 11
6.975657
 21
1.03596
 31
0.0
  0
LINE
  8
0
 62
     0
 10
7.442434
 20
1.502737
 30
0.0
 11
7.715802
 21
1.776105
 31
0.0
  0
LINE
  8
0
 62
     0
 10
7.20107
 20
1.261373
 30
0.0
 11
7.261155
 21
1.321458
 31
0.0
  0
LINE
  8
0
 62
     0
 10
6.939308
 20
1.034967
 30
0.0
 11
6.96917
 21
1.064829
 31
0.0
  0
LINE
  8
0
 62
     0
 10
7.441114
 20
1.536772
 30
0.0
 11
7.684541
 21
1.780199
 31
0.0
  0
LINE
  8
0
 62
     0
 10
7.20107
 20
1.296728
 30
0.0
 11
7.250289
 21
1.345948
 31
0.0
  0
LINE
  8
0
 62
     0
 10
6.939308
 20
1.070322
 30
0.0
 11
6.96917
 21
1.100184
 31
0.0
  0
LINE
  8
0
 62
     0
 10
7.435867
 20
1.566881
 30
0.0
 11
7.649186
 21
1.780199
 31
0.0
  0
LINE
  8
0
 62
     0
 10
7.20107
 20
1.332083
 30
0.0
 11
7.239424
 21
1.370437
 31
0.0
  0
LINE
  8
0
 62
     0
 10
6.939308
 20
1.105678
 30
0.0
 11
6.96917
 21
1.13554
 31
0.0
  0
LINE
  8
0
 62
     0
 10
7.42764
 20
1.594009
 30
0.0
 11
7.61383
 21
1.780199
 31
0.0
  0
LINE
  8
0
 62
     0
 10
7.20107
 20
1.367439
 30
0.0
 11
7.306966
 21
1.473335
 31
0.0
  0
LINE
  8
0
 62
     0
 10
6.939308
 20
1.141033
 30
0.0
 11
6.96917
 21
1.170895
 31
0.0
  0
LINE
  8
0
 62
     0
 10
7.416954
 20
1.618678
 30
0.0
 11
7.578475
 21
1.780199
 31
0.0
  0
LINE
  8
0
 62
     0
 10
7.179922
 20
1.381646
 30
0.0
 11
7.308135
 21
1.50986
 31
0.0
  0
LINE
  8
0
 62
     0
 10
6.939308
 20
1.176388
 30
0.0
 11
6.96917
 21
1.20625
 31
0.0
  0
LINE
  8
0
 62
     0
 10
7.404118
 20
1.641198
 30
0.0
 11
7.54312
 21
1.780199
 31
0.0
  0
LINE
  8
0
 62
     0
 10
7.15188
 20
1.38896
 30
0.0
 11
7.300822
 21
1.537901
 31
0.0
  0
LINE
  8
0
 62
     0
 10
6.939308
 20
1.211744
 30
0.0
 11
6.96917
 21
1.241606
 31
0.0
  0
LINE
  8
0
 62
     0
 10
7.389317
 20
1.661752
 30
0.0
 11
7.507764
 21
1.780199
 31
0.0
  0
LINE
  8
0
 62
     0
 10
7.128941
 20
1.401376
 30
0.0
 11
7.288405
 21
1.56084
 31
0.0
  0
LINE
  8
0
 62
     0
 10
6.939308
 20
1.247099
 30
0.0
 11
6.96917
 21
1.276961
 31
0.0
  0
LINE
  8
0
 62
     0
 10
7.37265
 20
1.68044
 30
0.0
 11
7.472409
 21
1.780199
 31
0.0
  0
LINE
  8
0
 62
     0
 10
7.110104
 20
1.417894
 30
0.0
 11
7.271887
 21
1.579677
 31
0.0
  0
LINE
  8
0
 62
     0
 10
6.939308
 20
1.282454
 30
0.0
 11
6.96917
 21
1.312316
 31
0.0
  0
LINE
  8
0
 62
     0
 10
7.354149
 20
1.697295
 30
0.0
 11
7.437054
 21
1.780199
 31
0.0
  0
LINE
  8
0
 62
     0
 10
7.095185
 20
1.438331
 30
0.0
 11
7.25145
 21
1.594596
 31
0.0
  0
LINE
  8
0
 62
     0
 10
6.939308
 20
1.31781
 30
0.0
 11
6.96917
 21
1.347672
 31
0.0
  0
LINE
  8
0
 62
     0
 10
7.333788
 20
1.712289
 30
0.0
 11
7.401698
 21
1.780199
 31
0.0
  0
LINE
  8
0
 62
     0
 10
7.084641
 20
1.463142
 30
0.0
 11
7.22664
 21
1.605141
 31
0.0
  0
LINE
  8
0
 62
     0
 10
6.939308
 20
1.353165
 30
0.0
 11
6.96917
 21
1.383027
 31
0.0
  0
LINE
  8
0
 62
     0
 10
7.311475
 20
1.725332
 30
0.0
 11
7.366343
 21
1.780199
 31
0.0
  0
LINE
  8
0
 62
     0
 10
7.080064
 20
1.493921
 30
0.0
 11
7.19586
 21
1.609717
 31
0.0
  0
LINE
  8
0
 62
     0
 10
6.939308
 20
1.38852
 30
0.0
 11
6.96917
 21
1.418382
 31
0.0
  0
LINE
  8
0
 62
     0
 10
7.287036
 20
1.736248
 30
0.0
 11
7.330988
 21
1.780199
 31
0.0
  0
LINE
  8
0
 62
     0
 10
7.08806
 20
1.537272
 30
0.0
 11
7.152509
 21
1.601721
 31
0.0
  0
LINE
  8
0
 62
     0
 10
6.939308
 20
1.423876
 30
0.0
 11
6.96917
 21
1.453738
 31
0.0
  0
LINE
  8
0
 62
     0
 10
7.260178
 20
1.744745
 30
0.0
 11
7.295632
 21
1.780199
 31
0.0
  0
LINE
  8
0
 62
     0
 10
6.939308
 20
1.459231
 30
0.0
 11
6.96917
 21
1.489093
 31
0.0
  0
LINE
  8
0
 62
     0
 10
7.230407
 20
1.750329
 30
0.0
 11
7.260277
 21
1.780199
 31
0.0
  0
LINE
  8
0
 62
     0
 10
6.939308
 20
1.494586
 30
0.0
 11
6.96917
 21
1.524448
 31
0.0
  0
LINE
  8
0
 62
     0
 10
7.196869
 20
1.752147
 30
0.0
 11
7.224922
 21
1.780199
 31
0.0
  0
LINE
  8
0
 62
     0
 10
6.939308
 20
1.529942
 30
0.0
 11
6.96917
 21
1.559804
 31
0.0
  0
LINE
  8
0
 62
     0
 10
7.161514
 20
1.752147
 30
0.0
 11
7.189566
 21
1.780199
 31
0.0
  0
LINE
  8
0
 62
     0
 10
6.939308
 20
1.565297
 30
0.0
 11
6.96917
 21
1.595159
 31
0.0
  0
LINE
  8
0
 62
     0
 10
7.126159
 20
1.752147
 30
0.0
 11
7.154211
 21
1.780199
 31
0.0
  0
LINE
  8
0
 62
     0
 10
6.939308
 20
1.600652
 30
0.0
 11
6.96917
 21
1.630514
 31
0.0
  0
LINE
  8
0
 62
     0
 10
7.090803
 20
1.752147
 30
0.0
 11
7.118856
 21
1.780199
 31
0.0
  0
LINE
  8
0
 62
     0
 10
6.939308
 20
1.636008
 30
0.0
 11
6.96917
 21
1.66587
 31
0.0
  0
LINE
  8
0
 62
     0
 10
7.055448
 20
1.752147
 30
0.0
 11
7.0835
 21
1.780199
 31
0.0
  0
LINE
  8
0
 62
     0
 10
6.939308
 20
1.671363
 30
0.0
 11
6.96917
 21
1.701225
 31
0.0
  0
LINE
  8
0
 62
     0
 10
7.020093
 20
1.752147
 30
0.0
 11
7.048145
 21
1.780199
 31
0.0
  0
LINE
  8
0
 62
     0
 10
6.939308
 20
1.706718
 30
0.0
 11
6.96917
 21
1.73658
 31
0.0
  0
LINE
  8
0
 62
     0
 10
6.984737
 20
1.752147
 30
0.0
 11
7.01279
 21
1.780199
 31
0.0
  0
LINE
  8
0
 62
     0
 10
6.939308
 20
1.742074
 30
0.0
 11
6.977434
 21
1.780199
 31
0.0
  0
LINE
  8
0
 62
     0
 10
6.939308
 20
1.777429
 30
0.0
 11
6.942079
 21
1.780199
 31
0.0
  0
LINE
  8
0
 62
     0
 10
8.218778
 20
1.112355
 30
0.0
 11
8.282766
 21
1.176343
 31
0.0
  0
LINE
  8
0
 62
     0
 10
8.49785
 20
1.391427
 30
0.0
 11
8.551633
 21
1.44521
 31
0.0
  0
LINE
  8
0
 62
     0
 10
8.291442
 20
1.185019
 30
0.0
 11
8.356838
 21
1.250414
 31
0.0
  0
LINE
  8
0
 62
     0
 10
8.231559
 20
1.08978
 30
0.0
 11
8.289021
 21
1.147242
 31
0.0
  0
LINE
  8
0
 62
     0
 10
8.762606
 20
1.620828
 30
0.0
 11
8.762765
 21
1.620987
 31
0.0
  0
LINE
  8
0
 62
     0
 10
8.326798
 20
1.185019
 30
0.0
 11
8.392193
 21
1.250414
 31
0.0
  0
LINE
  8
0
 62
     0
 10
8.527919
 20
1.386141
 30
0.0
 11
8.579674
 21
1.437896
 31
0.0
  0
LINE
  8
0
 62
     0
 10
8.247578
 20
1.070444
 30
0.0
 11
8.301224
 21
1.124091
 31
0.0
  0
LINE
  8
0
 62
     0
 10
8.781342
 20
1.604208
 30
0.0
 11
8.79812
 21
1.620987
 31
0.0
  0
LINE
  8
0
 62
     0
 10
8.362153
 20
1.185019
 30
0.0
 11
8.427548
 21
1.250414
 31
0.0
  0
LINE
  8
0
 62
     0
 10
8.555082
 20
1.377948
 30
0.0
 11
8.606024
 21
1.42889
 31
0.0
  0
LINE
  8
0
 62
     0
 10
8.266676
 20
1.054187
 30
0.0
 11
8.318015
 21
1.105526
 31
0.0
  0
LINE
  8
0
 62
     0
 10
8.795494
 20
1.583005
 30
0.0
 11
8.833476
 21
1.620987
 31
0.0
  0
LINE
  8
0
 62
     0
 10
8.397508
 20
1.185019
 30
0.0
 11
8.462904
 21
1.250414
 31
0.0
  0
LINE
  8
0
 62
     0
 10
8.579837
 20
1.367348
 30
0.0
 11
8.630254
 21
1.417765
 31
0.0
  0
LINE
  8
0
 62
     0
 10
8.288451
 20
1.040607
 30
0.0
 11
8.337582
 21
1.089738
 31
0.0
  0
LINE
  8
0
 62
     0
 10
8.804222
 20
1.556378
 30
0.0
 11
8.868831
 21
1.620987
 31
0.0
  0
LINE
  8
0
 62
     0
 10
8.432864
 20
1.185019
 30
0.0
 11
8.498259
 21
1.250414
 31
0.0
  0
LINE
  8
0
 62
     0
 10
8.602203
 20
1.354359
 30
0.0
 11
8.65206
 21
1.404215
 31
0.0
  0
LINE
  8
0
 62
     0
 10
8.311547
 20
1.028347
 30
0.0
 11
8.358717
 21
1.075517
 31
0.0
  0
LINE
  8
0
 62
     0
 10
8.80572
 20
1.522521
 30
0.0
 11
8.887464
 21
1.604264
 31
0.0
  0
LINE
  8
0
 62
     0
 10
8.468219
 20
1.185019
 30
0.0
 11
8.533614
 21
1.250414
 31
0.0
  0
LINE
  8
0
 62
     0
 10
8.621106
 20
1.337906
 30
0.0
 11
8.671645
 21
1.388445
 31
0.0
  0
LINE
  8
0
 62
     0
 10
8.335947
 20
1.017392
 30
0.0
 11
8.384413
 21
1.065858
 31
0.0
  0
LINE
  8
0
 62
     0
 10
8.80572
 20
1.487165
 30
0.0
 11
8.887464
 21
1.568909
 31
0.0
  0
LINE
  8
0
 62
     0
 10
8.503575
 20
1.185019
 30
0.0
 11
8.56897
 21
1.250414
 31
0.0
  0
LINE
  8
0
 62
     0
 10
8.636504
 20
1.317949
 30
0.0
 11
8.689096
 21
1.370541
 31
0.0
  0
LINE
  8
0
 62
     0
 10
8.361754
 20
1.007844
 30
0.0
 11
8.414456
 21
1.060545
 31
0.0
  0
LINE
  8
0
 62
     0
 10
8.80572
 20
1.45181
 30
0.0
 11
8.887464
 21
1.533554
 31
0.0
  0
LINE
  8
0
 62
     0
 10
8.53893
 20
1.185019
 30
0.0
 11
8.604325
 21
1.250414
 31
0.0
  0
LINE
  8
0
 62
     0
 10
8.648105
 20
1.294195
 30
0.0
 11
8.704403
 21
1.350493
 31
0.0
  0
LINE
  8
0
 62
     0
 10
8.38911
 20
0.999844
 30
0.0
 11
8.446124
 21
1.056859
 31
0.0
  0
LINE
  8
0
 62
     0
 10
8.80572
 20
1.416455
 30
0.0
 11
8.887464
 21
1.498198
 31
0.0
  0
LINE
  8
0
 62
     0
 10
8.574285
 20
1.185019
 30
0.0
 11
8.63968
 21
1.250414
 31
0.0
  0
LINE
  8
0
 62
     0
 10
8.65494
 20
1.265674
 30
0.0
 11
8.717458
 21
1.328192
 31
0.0
  0
LINE
  8
0
 62
     0
 10
8.418208
 20
0.993587
 30
0.0
 11
8.479562
 21
1.054941
 31
0.0
  0
LINE
  8
0
 62
     0
 10
8.80572
 20
1.381099
 30
0.0
 11
8.887464
 21
1.462843
 31
0.0
  0
LINE
  8
0
 62
     0
 10
8.609641
 20
1.185019
 30
0.0
 11
8.728025
 21
1.303404
 31
0.0
  0
LINE
  8
0
 62
     0
 10
8.44947
 20
0.989494
 30
0.0
 11
8.515258
 21
1.055281
 31
0.0
  0
LINE
  8
0
 62
     0
 10
8.80572
 20
1.345744
 30
0.0
 11
8.887464
 21
1.427488
 31
0.0
  0
LINE
  8
0
 62
     0
 10
8.644996
 20
1.185019
 30
0.0
 11
8.735675
 21
1.275698
 31
0.0
  0
LINE
  8
0
 62
     0
 10
8.483915
 20
0.988583
 30
0.0
 11
8.55406
 21
1.058728
 31
0.0
  0
LINE
  8
0
 62
     0
 10
8.80572
 20
1.310389
 30
0.0
 11
8.887464
 21
1.392132
 31
0.0
  0
LINE
  8
0
 62
     0
 10
8.680351
 20
1.185019
 30
0.0
 11
8.739605
 21
1.244273
 31
0.0
  0
LINE
  8
0
 62
     0
 10
8.522788
 20
0.9921
 30
0.0
 11
8.597072
 21
1.066385
 31
0.0
  0
LINE
  8
0
 62
     0
 10
8.80572
 20
1.275033
 30
0.0
 11
8.960231
 21
1.429543
 31
0.0
  0
LINE
  8
0
 62
     0
 10
8.715707
 20
1.185019
 30
0.0
 11
8.739849
 21
1.209162
 31
0.0
  0
LINE
  8
0
 62
     0
 10
8.564529
 20
0.998486
 30
0.0
 11
8.646463
 21
1.080421
 31
0.0
  0
LINE
  8
0
 62
     0
 10
8.80572
 20
1.239678
 30
0.0
 11
9.012699
 21
1.446657
 31
0.0
  0
LINE
  8
0
 62
     0
 10
8.606376
 20
1.004978
 30
0.0
 11
8.707991
 21
1.106593
 31
0.0
  0
LINE
  8
0
 62
     0
 10
8.961602
 20
1.360204
 30
0.0
 11
9.053138
 21
1.45174
 31
0.0
  0
LINE
  8
0
 62
     0
 10
8.80572
 20
1.204322
 30
0.0
 11
8.902676
 21
1.301278
 31
0.0
  0
LINE
  8
0
 62
     0
 10
8.648329
 20
1.011576
 30
0.0
 11
8.710353
 21
1.073599
 31
0.0
  0
LINE
  8
0
 62
     0
 10
9.019286
 20
1.382533
 30
0.0
 11
9.087707
 21
1.450954
 31
0.0
  0
LINE
  8
0
 62
     0
 10
8.80572
 20
1.168967
 30
0.0
 11
8.886082
 21
1.249329
 31
0.0
  0
LINE
  8
0
 62
     0
 10
8.686606
 20
1.014497
 30
0.0
 11
8.710353
 21
1.038244
 31
0.0
  0
LINE
  8
0
 62
     0
 10
9.058871
 20
1.386763
 30
0.0
 11
9.119343
 21
1.447235
 31
0.0
  0
LINE
  8
0
 62
     0
 10
8.80572
 20
1.133612
 30
0.0
 11
8.882672
 21
1.210563
 31
0.0
  0
LINE
  8
0
 62
     0
 10
8.80572
 20
1.098256
 30
0.0
 11
8.885355
 21
1.177891
 31
0.0
  0
LINE
  8
0
 62
     0
 10
9.093711
 20
1.386247
 30
0.0
 11
9.148994
 21
1.44153
 31
0.0
  0
LINE
  8
0
 62
     0
 10
8.800986
 20
1.058166
 30
0.0
 11
8.892042
 21
1.149223
 31
0.0
  0
LINE
  8
0
 62
     0
 10
9.124517
 20
1.381698
 30
0.0
 11
9.17693
 21
1.43411
 31
0.0
  0
LINE
  8
0
 62
     0
 10
8.780633
 20
1.002458
 30
0.0
 11
8.90287
 21
1.124695
 31
0.0
  0
LINE
  8
0
 62
     0
 10
9.15252
 20
1.374346
 30
0.0
 11
9.203342
 21
1.425168
 31
0.0
  0
LINE
  8
0
 62
     0
 10
8.815988
 20
1.002458
 30
0.0
 11
8.918022
 21
1.104492
 31
0.0
  0
LINE
  8
0
 62
     0
 10
9.391035
 20
1.577505
 30
0.0
 11
9.444524
 21
1.630994
 31
0.0
  0
LINE
  8
0
 62
     0
 10
9.178011
 20
1.364481
 30
0.0
 11
9.228333
 21
1.414803
 31
0.0
  0
LINE
  8
0
 62
     0
 10
8.854132
 20
1.005247
 30
0.0
 11
8.871691
 21
1.022805
 31
0.0
  0
LINE
  8
0
 62
     0
 10
9.399019
 20
1.550134
 30
0.0
 11
9.471563
 21
1.622678
 31
0.0
  0
LINE
  8
0
 62
     0
 10
8.892691
 20
1.043806
 30
0.0
 11
8.937085
 21
1.0882
 31
0.0
  0
LINE
  8
0
 62
     0
 10
9.199664
 20
1.350779
 30
0.0
 11
9.250504
 21
1.401618
 31
0.0
  0
LINE
  8
0
 62
     0
 10
8.912738
 20
1.028498
 30
0.0
 11
8.960207
 21
1.075966
 31
0.0
  0
LINE
  8
0
 62
     0
 10
9.416876
 20
1.532635
 30
0.0
 11
9.488741
 21
1.604501
 31
0.0
  0
LINE
  8
0
 62
     0
 10
9.217557
 20
1.333316
 30
0.0
 11
9.269577
 21
1.385336
 31
0.0
  0
LINE
  8
0
 62
     0
 10
8.935131
 20
1.015535
 30
0.0
 11
8.986092
 21
1.066496
 31
0.0
  0
LINE
  8
0
 62
     0
 10
9.444989
 20
1.525393
 30
0.0
 11
9.495652
 21
1.576056
 31
0.0
  0
LINE
  8
0
 62
     0
 10
9.231718
 20
1.312122
 30
0.0
 11
9.285676
 21
1.36608
 31
0.0
  0
LINE
  8
0
 62
     0
 10
8.96013
 20
1.005178
 30
0.0
 11
9.014269
 21
1.059317
 31
0.0
  0
LINE
  8
0
 62
     0
 10
9.375929
 20
1.420978
 30
0.0
 11
9.385202
 21
1.430251
 31
0.0
  0
LINE
  8
0
 62
     0
 10
9.241618
 20
1.286667
 30
0.0
 11
9.298751
 21
1.3438
 31
0.0
  0
LINE
  8
0
 62
     0
 10
8.988208
 20
0.997902
 30
0.0
 11
9.045213
 21
1.054906
 31
0.0
  0
LINE
  8
0
 62
     0
 10
9.39101
 20
1.400703
 30
0.0
 11
9.420558
 21
1.430251
 31
0.0
  0
LINE
  8
0
 62
     0
 10
9.246743
 20
1.256436
 30
0.0
 11
9.310267
 21
1.31996
 31
0.0
  0
LINE
  8
0
 62
     0
 10
9.018819
 20
0.993157
 30
0.0
 11
9.07974
 21
1.054078
 31
0.0
  0
LINE
  8
0
 62
     0
 10
9.399237
 20
1.373575
 30
0.0
 11
9.455913
 21
1.430251
 31
0.0
  0
LINE
  8
0
 62
     0
 10
9.24838
 20
1.222718
 30
0.0
 11
9.319923
 21
1.294261
 31
0.0
  0
LINE
  8
0
 62
     0
 10
9.051609
 20
0.990592
 30
0.0
 11
9.119598
 21
1.05858
 31
0.0
  0
LINE
  8
0
 62
     0
 10
9.399726
 20
1.338709
 30
0.0
 11
9.487871
 21
1.426854
 31
0.0
  0
LINE
  8
0
 62
     0
 10
9.245363
 20
1.184346
 30
0.0
 11
9.327469
 21
1.266451
 31
0.0
  0
LINE
  8
0
 62
     0
 10
9.08707
 20
0.990698
 30
0.0
 11
9.180832
 21
1.08446
 31
0.0
  0
LINE
  8
0
 62
     0
 10
9.399726
 20
1.303353
 30
0.0
 11
9.479886
 21
1.383514
 31
0.0
  0
LINE
  8
0
 62
     0
 10
9.226066
 20
1.129693
 30
0.0
 11
9.332515
 21
1.236142
 31
0.0
  0
LINE
  8
0
 62
     0
 10
9.125991
 20
0.994263
 30
0.0
 11
9.332498
 21
1.20077
 31
0.0
  0
LINE
  8
0
 62
     0
 10
9.399726
 20
1.267998
 30
0.0
 11
9.479886
 21
1.348158
 31
0.0
  0
LINE
  8
0
 62
     0
 10
9.170316
 20
1.003232
 30
0.0
 11
9.32429
 21
1.157207
 31
0.0
  0
LINE
  8
0
 62
     0
 10
9.399726
 20
1.232643
 30
0.0
 11
9.479886
 21
1.312803
 31
0.0
  0
LINE
  8
0
 62
     0
 10
9.239558
 20
1.03712
 30
0.0
 11
9.290403
 21
1.087964
 31
0.0
  0
LINE
  8
0
 62
     0
 10
9.576181
 20
1.373743
 30
0.0
 11
9.610154
 21
1.407715
 31
0.0
  0
LINE
  8
0
 62
     0
 10
9.399726
 20
1.197287
 30
0.0
 11
9.479886
 21
1.277448
 31
0.0
  0
LINE
  8
0
 62
     0
 10
9.399726
 20
1.161932
 30
0.0
 11
9.479886
 21
1.242092
 31
0.0
  0
LINE
  8
0
 62
     0
 10
9.55846
 20
1.320666
 30
0.0
 11
9.676773
 21
1.438979
 31
0.0
  0
LINE
  8
0
 62
     0
 10
9.399726
 20
1.126576
 30
0.0
 11
9.479886
 21
1.206737
 31
0.0
  0
LINE
  8
0
 62
     0
 10
9.562027
 20
1.288878
 30
0.0
 11
9.721463
 21
1.448314
 31
0.0
  0
LINE
  8
0
 62
     0
 10
9.399383
 20
1.090878
 30
0.0
 11
9.479886
 21
1.171382
 31
0.0
  0
LINE
  8
0
 62
     0
 10
9.681054
 20
1.37255
 30
0.0
 11
9.760353
 21
1.451849
 31
0.0
  0
LINE
  8
0
 62
     0
 10
9.572553
 20
1.264048
 30
0.0
 11
9.649955
 21
1.34145
 31
0.0
  0
LINE
  8
0
 62
     0
 10
9.387146
 20
1.043286
 30
0.0
 11
9.479886
 21
1.136026
 31
0.0
  0
LINE
  8
0
 62
     0
 10
9.728403
 20
1.384543
 30
0.0
 11
9.796911
 21
1.453051
 31
0.0
  0
LINE
  8
0
 62
     0
 10
9.587942
 20
1.244082
 30
0.0
 11
9.6496
 21
1.30574
 31
0.0
  0
LINE
  8
0
 62
     0
 10
9.381673
 20
1.002458
 30
0.0
 11
9.479886
 21
1.100671
 31
0.0
  0
LINE
  8
0
 62
     0
 10
9.769463
 20
1.390247
 30
0.0
 11
9.831553
 21
1.452338
 31
0.0
  0
LINE
  8
0
 62
     0
 10
9.607717
 20
1.228502
 30
0.0
 11
9.663594
 21
1.284379
 31
0.0
  0
LINE
  8
0
 62
     0
 10
9.417029
 20
1.002458
 30
0.0
 11
9.483578
 21
1.069007
 31
0.0
  0
LINE
  8
0
 62
     0
 10
9.806438
 20
1.391868
 30
0.0
 11
9.864548
 21
1.449978
 31
0.0
  0
LINE
  8
0
 62
     0
 10
9.632314
 20
1.217743
 30
0.0
 11
9.686527
 21
1.271956
 31
0.0
  0
LINE
  8
0
 62
     0
 10
9.452384
 20
1.002458
 30
0.0
 11
9.492702
 21
1.042776
 31
0.0
  0
LINE
  8
0
 62
     0
 10
9.840385
 20
1.390459
 30
0.0
 11
9.896097
 21
1.446171
 31
0.0
  0
LINE
  8
0
 62
     0
 10
9.550089
 20
1.100163
 30
0.0
 11
9.563939
 21
1.114013
 31
0.0
  0
LINE
  8
0
 62
     0
 10
9.660439
 20
1.210513
 30
0.0
 11
9.716856
 21
1.26693
 31
0.0
  0
LINE
  8
0
 62
     0
 10
9.487739
 20
1.002458
 30
0.0
 11
9.505788
 21
1.020507
 31
0.0
  0
LINE
  8
0
 62
     0
 10
9.871923
 20
1.386642
 30
0.0
 11
9.926353
 21
1.441072
 31
0.0
  0
LINE
  8
0
 62
     0
 10
9.558069
 20
1.072788
 30
0.0
 11
9.588189
 21
1.102908
 31
0.0
  0
LINE
  8
0
 62
     0
 10
9.689854
 20
1.204572
 30
0.0
 11
9.748407
 21
1.263125
 31
0.0
  0
LINE
  8
0
 62
     0
 10
9.566049
 20
1.045413
 30
0.0
 11
9.613358
 21
1.092721
 31
0.0
  0
LINE
  8
0
 62
     0
 10
9.901453
 20
1.380817
 30
0.0
 11
9.955439
 21
1.434802
 31
0.0
  0
LINE
  8
0
 62
     0
 10
9.720702
 20
1.200065
 30
0.0
 11
9.781182
 21
1.260545
 31
0.0
  0
LINE
  8
0
 62
     0
 10
9.574029
 20
1.018037
 30
0.0
 11
9.6395
 21
1.083508
 31
0.0
  0
LINE
  8
0
 62
     0
 10
9.92925
 20
1.373258
 30
0.0
 11
9.983538
 21
1.427546
 31
0.0
  0
LINE
  8
0
 62
     0
 10
9.753174
 20
1.197182
 30
0.0
 11
9.815323
 21
1.259331
 31
0.0
  0
LINE
  8
0
 62
     0
 10
9.607628
 20
1.016281
 30
0.0
 11
9.666682
 21
1.075334
 31
0.0
  0
LINE
  8
0
 62
     0
 10
9.955509
 20
1.364162
 30
0.0
 11
10.016706
 21
1.425359
 31
0.0
  0
LINE
  8
0
 62
     0
 10
9.787289
 20
1.195941
 30
0.0
 11
9.850706
 21
1.259359
 31
0.0
  0
LINE
  8
0
 62
     0
 10
9.639769
 20
1.013066
 30
0.0
 11
9.694987
 21
1.068284
 31
0.0
  0
LINE
  8
0
 62
     0
 10
9.980373
 20
1.353671
 30
0.0
 11
10.02025
 21
1.393547
 31
0.0
  0
LINE
  8
0
 62
     0
 10
9.821444
 20
1.194741
 30
0.0
 11
9.884138
 21
1.257435
 31
0.0
  0
LINE
  8
0
 62
     0
 10
9.66952
 20
1.007462
 30
0.0
 11
9.724519
 21
1.062461
 31
0.0
  0
LINE
  8
0
 62
     0
 10
9.855285
 20
1.193227
 30
0.0
 11
9.915157
 21
1.253099
 31
0.0
  0
LINE
  8
0
 62
     0
 10
9.697719
 20
1.000305
 30
0.0
 11
9.755409
 21
1.057995
 31
0.0
  0
LINE
  8
0
 62
     0
 10
9.888768
 20
1.191355
 30
0.0
 11
9.944161
 21
1.246747
 31
0.0
  0
LINE
  8
0
 62
     0
 10
9.726706
 20
0.993937
 30
0.0
 11
9.787825
 21
1.055056
 31
0.0
  0
LINE
  8
0
 62
     0
 10
9.91826
 20
1.185491
 30
0.0
 11
9.971421
 21
1.238652
 31
0.0
  0
LINE
  8
0
 62
     0
 10
9.757758
 20
0.989634
 30
0.0
 11
9.821991
 21
1.053867
 31
0.0
  0
LINE
  8
0
 62
     0
 10
9.941214
 20
1.17309
 30
0.0
 11
9.995697
 21
1.227573
 31
0.0
  0
LINE
  8
0
 62
     0
 10
9.791295
 20
0.987816
 30
0.0
 11
9.860801
 21
1.057321
 31
0.0
  0
LINE
  8
0
 62
     0
 10
9.955602
 20
1.152123
 30
0.0
 11
10.015211
 21
1.211731
 31
0.0
  0
LINE
  8
0
 62
     0
 10
9.827983
 20
0.989148
 30
0.0
 11
9.915084
 21
1.076249
 31
0.0
  0
LINE
  8
0
 62
     0
 10
9.958759
 20
1.119924
 30
0.0
 11
10.030296
 21
1.191461
 31
0.0
  0
LINE
  8
0
 62
     0
 10
9.868983
 20
0.994793
 30
0.0
 11
10.040395
 21
1.166205
 31
0.0
  0
LINE
  8
0
 62
     0
 10
9.916703
 20
1.007157
 30
0.0
 11
10.043777
 21
1.134232
 31
0.0
  0
LINE
  8
0
 62
     0
 10
9.978378
 20
1.033477
 30
0.0
 11
10.032069
 21
1.087168
 31
0.0
  0
ENDBLK
  8
0
  0
BLOCK
  8
0
  2
POINT
 70
    64
 10
0.0
 20
0.0
 30
0.0
  3
POINT
  0
CIRCLE
  8
0
  6
BYBLOCK
 62
     0
 10
0.0
 20
0.0
 30
0.0
 40
0.5
  0
CIRCLE
  8
0
  6
BYBLOCK
 62
     0
 10
0.0
 20
0.0
 30
0.0
 40
0.5
210
0.7071067811865475
220
0.0
230
0.7071067811865478
  0
CIRCLE
  8
0
  6
BYBLOCK
 62
     0
 10
0.0
 20
0.0
 30
0.0
 40
0.5
210
0.9999999999999999
220
0.0
230
0.0000000000000001
  0
CIRCLE
  8
0
  6
BYBLOCK
 62
     0
 10
0.0
 20
0.0
 30
0.0
 40
0.5
210
0.7071067811865475
220
0.0
230
-0.7071067811865476
  0
CIRCLE
  8
0
  6
BYBLOCK
 62
     0
 10
0.0
 20
0.0
 30
0.0
 40
0.5
210
0.0000000000000001
220
0.0
230
-1.0
  0
CIRCLE
  8
0
  6
BYBLOCK
 62
     0
 10
0.0
 20
0.0
 30
0.0
 40
0.5
210
-0.7071067811865472
220
0.0
230
-0.7071067811865477
  0
CIRCLE
  8
0
  6
BYBLOCK
 62
     0
 10
0.0
 20
0.0
 30
0.0
 40
0.5
210
-0.9999999999999999
220
0.0
230
-0.0000000000000002
  0
CIRCLE
  8
0
  6
BYBLOCK
 62
     0
 10
0.0
 20
0.0
 30
0.0
 40
0.5
210
-0.7071067811865477
220
0.0
230
0.7071067811865476
  0
ENDBLK
  8
0
  0
BLOCK
  8
0
  2
RUN
 70
    66
 10
0.0
 20
0.0
 30
0.0
  3
RUN
  0
POLYLINE
  8
0
 66
     1
 10
0.0
 20
0.0
 30
0.0
 40
1.0
 41
1.0
  0
VERTEX
  8
0
 10
0.0
 20
0.0
 30
0.0
  0
VERTEX
  8
0
 10
1.0
 20
0.0
 30
0.0
  0
SEQEND
  8
0
  0
ATTDEF
  8
0
 10
0.349303
 20
0.182422
 30
0.0
 40
0.01
  1
 
  3
Material
  2
MAT
 70
     9
  0
ATTDEF
  8
0
 10
0.349303
 20
0.165755
 30
0.0
 40
0.01
  1
 
  3
Schedule
  2
SCH
 70
     9
  0
ATTDEF
  8
0
 10
0.349303
 20
0.149088
 30
0.0
 40
0.01
  1
 
  3
Nominal Diameter
  2
NOM
 70
     9
  0
ENDBLK
  8
0
  0
BLOCK
  8
0
  2
BEND
 70
    66
 10
0.0
 20
0.0
 30
0.0
  3
BEND
  0
ATTDEF
  8
0
 10
0.013631
 20
-0.005314
 30
0.0
 40
0.01
  1
 
  3
Bend Radius
  2
RAD
 70
     9
  0
ATTDEF
  8
0
 10
0.013631
 20
0.011353
 30
0.0
 40
0.01
  1
 
  3
Nominal Diameter
  2
NOM
 70
     9
  0
ATTDEF
  8
0
 10
0.013631
 20
0.028019
 30
0.0
 40
0.01
  1
 
  3
Material
  2
MAT
 70
     9
  0
ATTDEF
  8
0
 10
0.013631
 20
0.044686
 30
0.0
 40
0.01
  1
 
  3
Schedule
  2
SCH
 70
     9
  0
CIRCLE
  8
0
  6
BYBLOCK
 62
     0
 10
0.0
 20
0.0
 30
0.0
 40
0.5
210
-0.7071067811865477
220
0.0
230
0.7071067811865476
  0
CIRCLE
  8
0
  6
BYBLOCK
 62
     0
 10
0.0
 20
0.0
 30
0.0
 40
0.5
210
-0.9999999999999999
220
0.0
230
-0.0000000000000002
  0
CIRCLE
  8
0
  6
BYBLOCK
 62
     0
 10
0.0
 20
0.0
 30
0.0
 40
0.5
210
-0.7071067811865472
220
0.0
230
-0.7071067811865477
  0
CIRCLE
  8
0
  6
BYBLOCK
 62
     0
 10
0.0
 20
0.0
 30
0.0
 40
0.5
210
0.0000000000000001
220
0.0
230
-1.0
  0
CIRCLE
  8
0
  6
BYBLOCK
 62
     0
 10
0.0
 20
0.0
 30
0.0
 40
0.5
210
0.7071067811865475
220
0.0
230
-0.7071067811865476
  0
CIRCLE
  8
0
  6
BYBLOCK
 62
     0
 10
0.0
 20
0.0
 30
0.0
 40
0.5
210
0.9999999999999999
220
0.0
230
0.0000000000000001
  0
CIRCLE
  8
0
  6
BYBLOCK
 62
     0
 10
0.0
 20
0.0
 30
0.0
 40
0.5
210
0.7071067811865475
220
0.0
230
0.7071067811865478
  0
CIRCLE
  8
0
  6
BYBLOCK
 62
     0
 10
0.0
 20
0.0
 30
0.0
 40
0.5
  0
ENDBLK
  8
0
  0
BLOCK
  8
0
  2
VALVE
 70
    66
 10
0.0
 20
0.0
 30
0.0
  3
VALVE
  0
ATTDEF
  8
0
 10
0.49792
 20
0.521981
 30
0.0
 40
0.01
  1
 
  3
Weight
  2
WGT
 70
     9
  0
ATTDEF
  8
0
 10
0.49792
 20
0.538647
 30
0.0
 40
0.01
  1
 
  3
Rating
  2
RAT
 70
     9
  0
LINE
  8
0
 10
0.0
 20
-0.5
 30
0.0
 11
0.0
 21
0.5
 31
0.0
  0
LINE
  8
0
 10
0.0
 20
0.5
 30
0.0
 11
1.0
 21
-0.5
 31
0.0
  0
LINE
  8
0
 10
1.0
 20
-0.5
 30
0.0
 11
1.0
 21
0.5
 31
0.0
  0
LINE
  8
0
 10
1.0
 20
0.5
 30
0.0
 11
0.0
 21
-0.5
 31
0.0
  0
ENDBLK
  8
0
  0
BLOCK
  8
0
  2
REDUCER
 70
    64
 10
0.0
 20
0.0
 30
0.0
  3
REDUCER
  0
LINE
  8
0
 10
1.0
 20
-0.25
 30
0.0
 11
0.0
 21
-0.5
 31
0.0
  0
LINE
  8
0
 10
1.0
 20
0.25
 30
0.0
 11
1.0
 21
-0.25
 31
0.0
  0
LINE
  8
0
 10
0.0
 20
0.5
 30
0.0
 11
1.0
 21
0.25
 31
0.0
  0
LINE
  8
0
 10
0.0
 20
-0.5
 30
0.0
 11
0.0
 21
0.5
 31
0.0
  0
ENDBLK
  8
0
  0
BLOCK
  8
0
  2
FLXJNT
 70
    64
 10
0.0
 20
0.0
 30
0.0
  3
FLXJNT
  0
ARC
  8
0
  6
BYBLOCK
 62
     0
 10
0.125
 20
0.35
 30
0.0
 40
0.075
 50
180.0
 51
0.0
  0
ARC
  8
0
  6
BYBLOCK
 62
     0
 10
0.275
 20
0.35
 30
0.0
 40
0.075
 50
0.0
 51
180.0
  0
ARC
  8
0
  6
BYBLOCK
 62
     0
 10
0.425
 20
0.35
 30
0.0
 40
0.075
 50
180.0
 51
0.0
  0
ARC
  8
0
  6
BYBLOCK
 62
     0
 10
0.575
 20
0.35
 30
0.0
 40
0.075
 50
0.0
 51
180.0
  0
ARC
  8
0
  6
BYBLOCK
 62
     0
 10
0.725
 20
0.35
 30
0.0
 40
0.075
 50
180.0
 51
0.0
  0
ARC
  8
0
  6
BYBLOCK
 62
     0
 10
0.875
 20
0.35
 30
0.0
 40
0.075
 50
0.0
 51
180.0
  0
LINE
  8
0
  6
BYBLOCK
 62
     0
 10
0.0
 20
0.35
 30
0.0
 11
0.05
 21
0.35
 31
0.0
  0
LINE
  8
0
  6
BYBLOCK
 62
     0
 10
0.95
 20
0.35
 30
0.0
 11
1.0
 21
0.35
 31
0.0
  0
LINE
  8
0
  6
BYBLOCK
 62
     0
 10
0.95
 20
-0.35
 30
0.0
 11
1.0
 21
-0.35
 31
0.0
  0
LINE
  8
0
  6
BYBLOCK
 62
     0
 10
0.0
 20
-0.35
 30
0.0
 11
0.05
 21
-0.35
 31
0.0
  0
ARC
  8
0
  6
BYBLOCK
 62
     0
 10
0.875
 20
-0.35
 30
0.0
 40
0.075
 50
180.0
 51
0.0
  0
ARC
  8
0
  6
BYBLOCK
 62
     0
 10
0.725
 20
-0.35
 30
0.0
 40
0.075
 50
0.0
 51
180.0
  0
ARC
  8
0
  6
BYBLOCK
 62
     0
 10
0.575
 20
-0.35
 30
0.0
 40
0.075
 50
180.0
 51
0.0
  0
ARC
  8
0
  6
BYBLOCK
 62
     0
 10
0.425
 20
-0.35
 30
0.0
 40
0.075
 50
0.0
 51
180.0
  0
ARC
  8
0
  6
BYBLOCK
 62
     0
 10
0.275
 20
-0.35
 30
0.0
 40
0.075
 50
180.0
 51
0.0
  0
ARC
  8
0
  6
BYBLOCK
 62
     0
 10
0.125
 20
-0.35
 30
0.0
 40
0.075
 50
0.0
 51
180.0
  0
LINE
  8
0
  6
BYBLOCK
 62
     0
 10
0.0
 20
0.5
 30
0.0
 11
0.0
 21
-0.5
 31
0.0
  0
LINE
  8
0
  6
BYBLOCK
 62
     0
 10
1.0
 20
-0.5
 30
0.0
 11
1.0
 21
0.5
 31
0.0
  0
ENDBLK
  8
0
  0
BLOCK
  8
0
  2
NOZZLE
 70
    64
 10
0.0
 20
0.0
 30
0.0
  3
NOZZLE
  0
TRACE
  8
0
 62
     5
 10
0.0
 20
0.015
 30
0.0
 11
0.0
 21
-0.015
 31
0.0
 12
1.0
 22
0.015
 32
0.0
 13
1.0
 23
-0.015
 33
0.0
  0
ENDBLK
  8
0
  0
BLOCK
  8
0
  2
FLANGE
 70
    66
 10
0.0
 20
0.0
 30
0.0
  3
FLANGE
  0
ATTDEF
  8
0
 10
0.493086
 20
0.536473
 30
0.0
 40
0.01
  1
 
  3
Weight
  2
WGT
 70
     9
  0
ATTDEF
  8
0
 10
0.493086
 20
0.55314
 30
0.0
 40
0.01
  1
 
  3
Rating
  2
RAT
 70
     9
  0
LINE
  8
0
 10
0.0
 20
0.0
 30
0.0
 11
0.4
 21
0.25
 31
0.0
  0
LINE
  8
0
 10
0.0
 20
0.0
 30
0.0
 11
0.4
 21
-0.25
 31
0.0
  0
LINE
  8
0
 10
0.4
 20
-0.5
 30
0.0
 11
0.4
 21
0.5
 31
0.0
  0
LINE
  8
0
 10
0.4
 20
0.0
 30
0.0
 11
0.6
 21
0.0
 31
0.0
  0
LINE
  8
0
 10
0.6
 20
0.5
 30
0.0
 11
0.6
 21
-0.5
 31
0.0
  0
LINE
  8
0
 10
0.6
 20
0.25
 30
0.0
 11
1.0
 21
0.0
 31
0.0
  0
LINE
  8
0
 10
1.0
 20
0.0
 30
0.0
 11
0.6
 21
-0.25
 31
0.0
  0
ENDBLK
  8
0
  0
BLOCK
  8
0
  2
ANCHOR
 70
    66
 10
0.0
 20
0.0
 30
0.0
  3
ANCHOR
  0
ATTDEF
  8
0
 10
-0.369477
 20
0.716184
 30
0.0
 40
0.01
  1
 
  3
T3 Case Z-Rotation
  2
RZ3
 70
     9
  0
ATTDEF
  8
0
 10
-0.369477
 20
0.73285
 30
0.0
 40
0.01
  1
 
  3
T3 Case Y-Rotation
  2
RY3
 70
     9
  0
ATTDEF
  8
0
 10
-0.369477
 20
0.749517
 30
0.0
 40
0.01
  1
 
  3
T3 Case X-Rotation
  2
RX3
 70
     9
  0
ATTDEF
  8
0
 10
-0.369477
 20
0.766184
 30
0.0
 40
0.01
  1
 
  3
T3 Case Z-Displacement
  2
DZ3
 70
     9
  0
ATTDEF
  8
0
 10
-0.369477
 20
0.78285
 30
0.0
 40
0.01
  1
 
  3
T3 Case Y-Displacement
  2
DY3
 70
     9
  0
ATTDEF
  8
0
 10
-0.369477
 20
0.799517
 30
0.0
 40
0.01
  1
 
  3
T3 Case X-Displacement
  2
DX3
 70
     9
  0
ATTDEF
  8
0
 10
-0.466161
 20
0.516184
 30
0.0
 40
0.01
  1
 
  3
T2 Case Z-Rotation
  2
RZ2
 70
     9
  0
ATTDEF
  8
0
 10
-0.466161
 20
0.53285
 30
0.0
 40
0.01
  1
 
  3
T2 Case Y-Rotation
  2
RY2
 70
     9
  0
ATTDEF
  8
0
 10
-0.466161
 20
0.549517
 30
0.0
 40
0.01
  1
 
  3
T2 Case X-Rotation
  2
RX2
 70
     9
  0
ATTDEF
  8
0
 10
-0.466161
 20
0.566184
 30
0.0
 40
0.01
  1
 
  3
T2 Case Z-Displacement
  2
DZ2
 70
     9
  0
ATTDEF
  8
0
 10
-0.466161
 20
0.58285
 30
0.0
 40
0.01
  1
 
  3
T2 Case Y-Displacement
  2
DY2
 70
     9
  0
ATTDEF
  8
0
 10
-0.466161
 20
0.599517
 30
0.0
 40
0.01
  1
 
  3
T2 Case X-Displacement
  2
DX2
 70
     9
  0
ATTDEF
  8
0
 10
-0.466161
 20
0.616184
 30
0.0
 40
0.01
  1
 
  3
T1 Case Z-Rotation
  2
RZ1
 70
     9
  0
ATTDEF
  8
0
 10
-0.466161
 20
0.63285
 30
0.0
 40
0.01
  1
 
  3
T1 Case Y-Rotation
  2
RY1
 70
     9
  0
ATTDEF
  8
0
 10
-0.466161
 20
0.649517
 30
0.0
 40
0.01
  1
 
  3
T1 Case X-Rotation
  2
RX1
 70
     9
  0
ATTDEF
  8
0
 10
-0.466161
 20
0.666184
 30
0.0
 40
0.01
  1
 
  3
T1 Case Z-Displacement
  2
DZ1
 70
     9
  0
ATTDEF
  8
0
 10
-0.466161
 20
0.68285
 30
0.0
 40
0.01
  1
 
  3
T1 Case Y-Displacement
  2
DY1
 70
     9
  0
ATTDEF
  8
0
 10
-0.466161
 20
0.699517
 30
0.0
 40
0.01
  1
 
  3
T1 Case X-Displacement
  2
DX1
 70
     9
  0
ATTDEF
  8
0
 10
-0.466161
 20
0.716184
 30
0.0
 40
0.01
  1
 
  3
Z-Rotational Stiffness
  2
ZSR
 70
     9
  0
ATTDEF
  8
0
 10
-0.466161
 20
0.73285
 30
0.0
 40
0.01
  1
 
  3
Y-Rotational Stiffness
  2
YSR
 70
     9
  0
ATTDEF
  8
0
 10
-0.466161
 20
0.749517
 30
0.0
 40
0.01
  1
 
  3
X-Rotational Stiffness
  2
XSR
 70
     9
  0
ATTDEF
  8
0
 10
-0.466161
 20
0.766184
 30
0.0
 40
0.01
  1
 
  3
Z-Translation Stiffness
  2
ZST
 70
     9
  0
ATTDEF
  8
0
 10
-0.466161
 20
0.78285
 30
0.0
 40
0.01
  1
 
  3
Y-Translation Stiffness
  2
YST
 70
     9
  0
ATTDEF
  8
0
 10
-0.466161
 20
0.799517
 30
0.0
 40
0.01
  1
 
  3
X-Translation Stiffness
  2
XST
 70
     9
  0
LINE
  8
0
 10
0.0
 20
0.5
 30
0.0
 11
0.0
 21
-0.5
 31
0.0
  0
LINE
  8
0
 10
-0.5
 20
0.5
 30
0.0
 11
0.0
 21
0.5
 31
0.0
  0
LINE
  8
0
 10
-0.5
 20
0.25
 30
0.0
 11
0.0
 21
0.25
 31
0.0
  0
LINE
  8
0
 10
-0.5
 20
0.0
 30
0.0
 11
0.0
 21
0.0
 31
0.0
  0
LINE
  8
0
 10
-0.5
 20
-0.25
 30
0.0
 11
0.0
 21
-0.25
 31
0.0
  0
LINE
  8
0
 10
0.0
 20
-0.5
 30
0.0
 11
-0.5
 21
-0.5
 31
0.0
  0
ENDBLK
  8
0
  0
BLOCK
  8
0
  2
FORCE
 70
    66
 10
0.0
 20
0.0
 30
0.0
  3
FORCE
  0
LINE
  8
0
 10
-0.075
 20
0.999517
 30
0.0
 11
0.0
 21
0.999517
 31
0.0
  0
LINE
  8
0
 10
0.0
 20
1.299517
 30
0.0
 11
-0.075
 21
0.999517
 31
0.0
  0
LINE
  8
0
 10
0.075
 20
0.999517
 30
0.0
 11
0.0
 21
1.299517
 31
0.0
  0
LINE
  8
0
 10
0.0
 20
0.999517
 30
0.0
 11
0.075
 21
0.999517
 31
0.0
  0
LINE
  8
0
 10
0.0
 20
0.0
 30
0.0
 11
0.0
 21
0.999517
 31
0.0
  0
ATTDEF
  8
0
 10
0.002347
 20
1.347826
 30
0.0
 40
0.01
  1
 
  3
Force
  2
FRC
 70
     9
  0
ATTDEF
  8
0
 10
0.002347
 20
1.331159
 30
0.0
 40
0.01
  1
 
  3
Load Case
  2
LCA
 70
     9
  0
ENDBLK
  8
0
  0
BLOCK
  8
0
  2
MOMENT
 70
    66
 10
0.0
 20
0.0
 30
0.0
  3
MOMENT
  0
ATTDEF
  8
0
 10
0.002347
 20
1.026812
 30
0.0
 40
0.01
  1
 
  3
Load Case
  2
LCA
 70
     9
  0
ATTDEF
  8
0
 10
0.002347
 20
1.043478
 30
0.0
 40
0.01
  1
 
  3
Moment
  2
MOM
 70
     9
  0
POLYLINE
  8
0
 66
     1
 10
0.0
 20
0.0
 30
0.0
  0
VERTEX
  8
0
 10
0.0
 20
0.0
 30
0.0
  0
VERTEX
  8
0
 10
0.0
 20
0.4
 30
0.0
  0
VERTEX
  8
0
 10
-0.075
 20
0.4
 30
0.0
  0
VERTEX
  8
0
 10
0.0
 20
0.7
 30
0.0
  0
VERTEX
  8
0
 10
-0.075
 20
0.7
 30
0.0
  0
VERTEX
  8
0
 10
0.0
 20
1.0
 30
0.0
  0
VERTEX
  8
0
 10
0.075
 20
0.7
 30
0.0
  0
VERTEX
  8
0
 10
0.0
 20
0.7
 30
0.0
  0
VERTEX
  8
0
 10
0.075
 20
0.4
 30
0.0
  0
VERTEX
  8
0
 10
0.0
 20
0.4
 30
0.0
  0
SEQEND
  8
0
  0
ENDBLK
  8
0
  0
BLOCK
  8
0
  2
WEIGHT
 70
    64
 10
0.0
 20
0.0
 30
0.0
  3
WEIGHT
  0
SOLID
  8
0
 10
0.03
 20
0.82
 30
0.0
 11
-0.03
 21
0.82
 31
0.0
 12
0.0
 22
1.0
 32
0.0
 13
0.0
 23
1.0
 33
0.0
  0
LINE
  8
0
 10
0.0
 20
0.82
 30
0.0
 11
0.0
 21
0.0
 31
0.0
  0
ENDBLK
  8
0
  0
BLOCK
  8
0
  2
DELTA
 70
    66
 10
0.0
 20
0.0
 30
0.0
  3
DELTA
  0
ATTDEF
  8
0
 10
0.032802
 20
0.323188
 30
0.0
 40
0.02
  1
0.0
  3
Rotational Displacement
  2
ROT
 70
     9
  0
ATTDEF
  8
0
 10
0.032802
 20
0.356522
 30
0.0
 40
0.02
  1
0.0
  3
Displacement
  2
DEL
 70
     9
  0
ATTDEF
  8
0
 10
0.032802
 20
0.389855
 30
0.0
 40
0.02
  1
 
  3
Load case
  2
LCA
 70
     9
  0
CIRCLE
  8
0
 10
0.0
 20
0.0
 30
-0.4
 40
0.000306
210
0.0
220
-1.0
230
0.0
  0
LINE
  8
0
 10
0.0
 20
0.0
 30
0.0
 11
0.0
 21
0.1
 31
0.0
  0
LINE
  8
0
 10
0.075
 20
0.1
 30
0.0
 11
0.0
 21
0.4
 31
0.0
  0
LINE
  8
0
 10
0.0
 20
0.4
 30
0.0
 11
-0.075
 21
0.1
 31
0.0
  0
LINE
  8
0
 10
-0.075
 20
0.1
 30
0.0
 11
0.075
 21
0.1
 31
0.0
  0
ENDBLK
  8
0
  0
BLOCK
  8
0
  2
FRAME
 70
    66
 10
0.0
 20
0.0
 30
0.0
  3
FRAME
  0
ATTDEF
  8
0
 10
0.5
 20
0.983333
 30
0.0
 40
0.01
  1
 
  3
Material
  2
MAT
 70
     9
  0
ATTDEF
  8
0
 10
0.5
 20
1.0
 30
0.0
 40
0.01
  1
 
  3
Cross section ID
  2
XID
 70
     9
  0
POLYLINE
  8
0
 66
     1
 10
0.0
 20
0.0
 30
0.0
 40
1.0
 41
1.0
  0
VERTEX
  8
0
 10
0.0
 20
0.0
 30
0.0
  0
VERTEX
  8
0
 10
1.0
 20
0.0
 30
0.0
  0
SEQEND
  8
0
  0
ENDBLK
  8
0
  0
BLOCK
  8
0
  2
SPRING
 70
    66
 10
0.0
 20
0.0
 30
0.0
  3
SPRING
  0
LINE
  8
0
 10
-0.15
 20
0.59
 30
0.0
 11
0.0
 21
0.7
 31
0.0
  0
LINE
  8
0
 10
0.15
 20
0.59
 30
0.0
 11
-0.15
 21
0.59
 31
0.0
  0
LINE
  8
0
 10
-0.15
 20
0.48
 30
0.0
 11
0.15
 21
0.59
 31
0.0
  0
LINE
  8
0
 10
0.15
 20
0.48
 30
0.0
 11
-0.15
 21
0.48
 31
0.0
  0
LINE
  8
0
 10
-0.15
 20
0.37
 30
0.0
 11
0.15
 21
0.48
 31
0.0
  0
LINE
  8
0
 10
0.15
 20
0.37
 30
0.0
 11
-0.15
 21
0.37
 31
0.0
  0
LINE
  8
0
 10
-0.15
 20
0.26
 30
0.0
 11
0.15
 21
0.37
 31
0.0
  0
LINE
  8
0
 10
0.15
 20
0.26
 30
0.0
 11
-0.15
 21
0.26
 31
0.0
  0
LINE
  8
0
 10
0.0
 20
0.15
 30
0.0
 11
0.15
 21
0.26
 31
0.0
  0
LINE
  8
0
 10
0.0
 20
0.0
 30
0.0
 11
0.0
 21
0.15
 31
0.0
  0
POLYLINE
  8
0
 66
     1
 10
0.0
 20
0.0
 30
0.0
 70
     1
  0
VERTEX
  8
0
 10
0.000485
 20
0.036788
 30
0.0
  0
VERTEX
  8
0
 10
-0.000485
 20
0.036788
 30
0.0
  0
VERTEX
  8
0
 10
0.0
 20
0.035575
 30
0.0
  0
SEQEND
  8
0
  0
POLYLINE
  8
0
 66
     1
 10
0.0
 20
0.0
 30
0.0
 70
     1
  0
VERTEX
  8
0
 10
0.00166
 20
0.037583
 30
0.0
  0
VERTEX
  8
0
 10
-0.00166
 20
0.037583
 30
0.0
  0
VERTEX
  8
0
 10
0.0
 20
0.033434
 30
0.0
  0
SEQEND
  8
0
  0
POLYLINE
  8
0
 66
     1
 10
0.0
 20
0.0
 30
0.0
 70
     1
  0
VERTEX
  8
0
 10
0.002665
 20
0.038264
 30
0.0
  0
VERTEX
  8
0
 10
-0.002665
 20
0.038264
 30
0.0
  0
VERTEX
  8
0
 10
0.0
 20
0.031601
 30
0.0
  0
SEQEND
  8
0
  0
POLYLINE
  8
0
 66
     1
 10
0.0
 20
0.0
 30
0.0
 70
     1
  0
VERTEX
  8
0
 10
0.003671
 20
0.038945
 30
0.0
  0
VERTEX
  8
0
 10
-0.003671
 20
0.038945
 30
0.0
  0
VERTEX
  8
0
 10
0.0
 20
0.029768
 30
0.0
  0
SEQEND
  8
0
  0
POLYLINE
  8
0
 66
     1
 10
0.0
 20
0.0
 30
0.0
 70
     1
  0
VERTEX
  8
0
 10
0.005091
 20
0.039906
 30
0.0
  0
VERTEX
  8
0
 10
-0.005091
 20
0.039906
 30
0.0
  0
VERTEX
  8
0
 10
0.0
 20
0.027179
 30
0.0
  0
SEQEND
  8
0
  0
POLYLINE
  8
0
 66
     1
 10
0.0
 20
0.0
 30
0.0
 70
     1
  0
VERTEX
  8
0
 10
0.006626
 20
0.040945
 30
0.0
  0
VERTEX
  8
0
 10
-0.006626
 20
0.040945
 30
0.0
  0
VERTEX
  8
0
 10
0.0
 20
0.02438
 30
0.0
  0
SEQEND
  8
0
  0
POLYLINE
  8
0
 66
     1
 10
0.0
 20
0.0
 30
0.0
 70
     1
  0
VERTEX
  8
0
 10
0.007896
 20
0.041805
 30
0.0
  0
VERTEX
  8
0
 10
-0.007896
 20
0.041805
 30
0.0
  0
VERTEX
  8
0
 10
0.0
 20
0.022065
 30
0.0
  0
SEQEND
  8
0
  0
POLYLINE
  8
0
 66
     1
 10
0.0
 20
0.0
 30
0.0
 70
     1
  0
VERTEX
  8
0
 10
0.009432
 20
0.042845
 30
0.0
  0
VERTEX
  8
0
 10
-0.009432
 20
0.042845
 30
0.0
  0
VERTEX
  8
0
 10
0.0
 20
0.019266
 30
0.0
  0
SEQEND
  8
0
  0
POLYLINE
  8
0
 66
     1
 10
0.0
 20
0.0
 30
0.0
 70
     1
  0
VERTEX
  8
0
 10
0.010702
 20
0.043705
 30
0.0
  0
VERTEX
  8
0
 10
-0.010702
 20
0.043705
 30
0.0
  0
VERTEX
  8
0
 10
0.0
 20
0.01695
 30
0.0
  0
SEQEND
  8
0
  0
POLYLINE
  8
0
 66
     1
 10
0.0
 20
0.0
 30
0.0
 70
     1
  0
VERTEX
  8
0
 10
0.011972
 20
0.044565
 30
0.0
  0
VERTEX
  8
0
 10
-0.011972
 20
0.044565
 30
0.0
  0
VERTEX
  8
0
 10
0.0
 20
0.014634
 30
0.0
  0
SEQEND
  8
0
  0
POLYLINE
  8
0
 66
     1
 10
0.0
 20
0.0
 30
0.0
 70
     1
  0
VERTEX
  8
0
 10
0.013243
 20
0.045425
 30
0.0
  0
VERTEX
  8
0
 10
-0.013243
 20
0.045425
 30
0.0
  0
VERTEX
  8
0
 10
0.0
 20
0.012319
 30
0.0
  0
SEQEND
  8
0
  0
POLYLINE
  8
0
 66
     1
 10
0.0
 20
0.0
 30
0.0
 70
     1
  0
VERTEX
  8
0
 10
0.014778
 20
0.046464
 30
0.0
  0
VERTEX
  8
0
 10
-0.014778
 20
0.046464
 30
0.0
  0
VERTEX
  8
0
 10
0.0
 20
0.00952
 30
0.0
  0
SEQEND
  8
0
  0
POLYLINE
  8
0
 66
     1
 10
0.0
 20
0.0
 30
0.0
 70
     1
  0
VERTEX
  8
0
 10
0.016313
 20
0.047504
 30
0.0
  0
VERTEX
  8
0
 10
-0.016313
 20
0.047504
 30
0.0
  0
VERTEX
  8
0
 10
0.0
 20
0.006721
 30
0.0
  0
SEQEND
  8
0
  0
POLYLINE
  8
0
 66
     1
 10
0.0
 20
0.0
 30
0.0
 70
     1
  0
VERTEX
  8
0
 10
0.018228
 20
0.0488
 30
0.0
  0
VERTEX
  8
0
 10
-0.018228
 20
0.0488
 30
0.0
  0
VERTEX
  8
0
 10
0.0
 20
0.00323
 30
0.0
  0
SEQEND
  8
0
  0
LINE
  8
0
 10
0.0
 20
0.15
 30
0.0
 11
0.15
 21
0.15
 31
0.0
  0
LINE
  8
0
 10
0.15
 20
0.15
 30
0.0
 11
0.15
 21
0.7
 31
0.0
  0
LINE
  8
0
 10
0.15
 20
0.7
 30
0.0
 11
-0.15
 21
0.7
 31
0.0
  0
LINE
  8
0
 10
-0.15
 20
0.7
 30
0.0
 11
-0.15
 21
0.15
 31
0.0
  0
LINE
  8
0
 10
-0.15
 20
0.15
 30
0.0
 11
0.0
 21
0.15
 31
0.0
  0
LINE
  8
0
 10
0.0
 20
0.7
 30
0.0
 11
0.0
 21
0.85
 31
0.0
  0
LINE
  8
0
 10
-0.15
 20
0.85
 30
0.0
 11
-0.15
 21
1.0
 31
0.0
  0
LINE
  8
0
 10
-0.075
 20
1.0
 30
0.0
 11
-0.075
 21
0.85
 31
0.0
  0
LINE
  8
0
 10
0.0
 20
1.0
 30
0.0
 11
0.0
 21
0.85
 31
0.0
  0
LINE
  8
0
 10
0.075
 20
1.0
 30
0.0
 11
0.075
 21
0.85
 31
0.0
  0
LINE
  8
0
 10
0.15
 20
1.0
 30
0.0
 11
0.15
 21
0.85
 31
0.0
  0
LINE
  8
0
 10
0.15
 20
0.85
 30
0.0
 11
-0.15
 21
0.85
 31
0.0
  0
LINE
  8
0
 10
0.02
 20
0.05
 30
0.0
 11
-0.02
 21
0.05
 31
0.0
  0
LINE
  8
0
 10
-0.02
 20
0.05
 30
0.0
 11
0.0
 21
0.0
 31
0.0
  0
LINE
  8
0
 10
0.0
 20
0.0
 30
0.0
 11
0.02
 21
0.05
 31
0.0
  0
ATTDEF
  8
0
 10
-0.009809
 20
1.057971
 30
0.0
 40
0.01
  1
 
  3
Spring Rate
  2
RAT
 70
     9
  0
ATTDEF
  8
0
 10
-0.009809
 20
1.041304
 30
0.0
 40
0.01
  1
 
  3
Cold Load
  2
PRE
 70
     9
  0
ATTDEF
  8
0
 10
-0.009809
 20
1.024638
 30
0.0
 40
0.01
  1
SPRING HANGER
  3
Type
  2
TYP
 70
     9
  0
ATTDEF
  8
0
 10
-0.009809
 20
1.007971
 30
0.0
 40
0.01
  1
 
  3
Name
  2
SID
 70
     9
  0
ENDBLK
  8
0
  0
BLOCK
  8
0
  2
YSTOP
 70
    66
 10
0.0
 20
0.0
 30
0.0
  3
YSTOP
  0
ATTDEF
  8
0
 10
0.001068
 20
-1.065459
 30
0.0
 40
0.01
  1
 
  3
Friction Coefficient
  2
FCF
 70
     9
  0
ATTDEF
  8
0
 10
0.001068
 20
-1.048792
 30
0.0
 40
0.01
  1
 
  3
Gap Down
  2
GDN
 70
     9
  0
ATTDEF
  8
0
 10
0.001068
 20
-1.032126
 30
0.0
 40
0.01
  1
 
  3
Gap Up
  2
GUP
 70
     9
  0
ATTDEF
  8
0
 10
0.001068
 20
-1.015459
 30
0.0
 40
0.01
  1
YSTOP SUPPORT
  3
Type
  2
TYP
 70
     9
  0
ATTDEF
  8
0
 10
0.001068
 20
-0.998792
 30
0.0
 40
0.01
  1
 
  3
Name
  2
SID
 70
     9
  0
LINE
  8
0
 10
0.075
 20
-1.0
 30
0.0
 11
0.075
 21
-0.85
 31
0.0
  0
LINE
  8
0
 10
0.15
 20
-0.85
 30
0.0
 11
0.15
 21
-1.0
 31
0.0
  0
LINE
  8
0
 10
-0.15
 20
-1.0
 30
0.0
 11
-0.15
 21
-0.85
 31
0.0
  0
LINE
  8
0
 10
-0.075
 20
-1.0
 30
0.0
 11
-0.075
 21
-0.85
 31
0.0
  0
LINE
  8
0
 10
0.0
 20
-1.0
 30
0.0
 11
0.0
 21
-0.85
 31
0.0
  0
LINE
  8
0
 10
-0.15
 20
-0.85
 30
0.0
 11
0.15
 21
-0.85
 31
0.0
  0
POLYLINE
  8
0
 66
     1
 10
0.0
 20
0.0
 30
0.0
  0
VERTEX
  8
0
 10
0.0
 20
-1.0
 30
0.0
  0
VERTEX
  8
0
 10
0.0
 20
-0.3
 30
0.0
  0
VERTEX
  8
0
 10
0.075
 20
-0.3
 30
0.0
  0
VERTEX
  8
0
 10
0.0
 20
0.0
 30
0.0
  0
VERTEX
  8
0
 10
-0.075
 20
-0.3
 30
0.0
  0
VERTEX
  8
0
 10
0.0
 20
-0.3
 30
0.0
  0
SEQEND
  8
0
  0
ENDBLK
  8
0
  0
BLOCK
  8
0
  2
CNSTHANG
 70
    66
 10
0.0
 20
0.0
 30
0.0
  3
CNSTHANG
  0
ATTDEF
  8
0
 10
-0.00014
 20
1.029469
 30
0.0
 40
0.01
  1
 
  3
Name
  2
SID
 70
     9
  0
ATTDEF
  8
0
 10
-0.00014
 20
1.046135
 30
0.0
 40
0.01
  1
CONSTANT FORCE HANGER
  3
Type
  2
TYP
 70
     9
  0
ATTDEF
  8
0
 10
-0.00014
 20
1.062802
 30
0.0
 40
0.01
  1
 
  3
Cold Load
  2
PRE
 70
     9
  0
LINE
  8
0
 10
0.0
 20
0.0
 30
0.0
 11
0.0
 21
0.15
 31
0.0
  0
LINE
  8
0
 10
0.0
 20
0.15
 30
0.0
 11
0.15
 21
0.15
 31
0.0
  0
LINE
  8
0
 10
0.15
 20
0.15
 30
0.0
 11
0.15
 21
0.7
 31
0.0
  0
LINE
  8
0
 10
0.15
 20
0.7
 30
0.0
 11
-0.15
 21
0.7
 31
0.0
  0
LINE
  8
0
 10
-0.15
 20
0.7
 30
0.0
 11
-0.15
 21
0.15
 31
0.0
  0
LINE
  8
0
 10
-0.15
 20
0.15
 30
0.0
 11
0.0
 21
0.15
 31
0.0
  0
LINE
  8
0
 10
0.0
 20
0.7
 30
0.0
 11
0.0
 21
0.85
 31
0.0
  0
LINE
  8
0
 10
-0.15
 20
0.85
 30
0.0
 11
-0.15
 21
1.0
 31
0.0
  0
LINE
  8
0
 10
-0.075
 20
1.0
 30
0.0
 11
-0.075
 21
0.85
 31
0.0
  0
LINE
  8
0
 10
0.0
 20
1.0
 30
0.0
 11
0.0
 21
0.85
 31
0.0
  0
LINE
  8
0
 10
0.075
 20
1.0
 30
0.0
 11
0.075
 21
0.85
 31
0.0
  0
LINE
  8
0
 10
0.15
 20
1.0
 30
0.0
 11
0.15
 21
0.85
 31
0.0
  0
LINE
  8
0
 10
0.15
 20
0.85
 30
0.0
 11
-0.15
 21
0.85
 31
0.0
  0
ENDBLK
  8
0
  0
BLOCK
  8
0
  2
LINSTP
 70
    66
 10
0.0
 20
0.0
 30
0.0
  3
LINSTP
  0
ATTDEF
  8
0
 10
-0.00208
 20
-1.114976
 30
0.0
 40
0.01
  1
 
  3
Stiffness
  2
STF
 70
     9
  0
ATTDEF
  8
0
 10
-0.00208
 20
-1.098309
 30
0.0
 40
0.01
  1
 
  3
Gap Backward
  2
GBK
 70
     9
  0
ATTDEF
  8
0
 10
-0.00208
 20
-1.081643
 30
0.0
 40
0.01
  1
 
  3
Gap Forward
  2
GFO
 70
     9
  0
ATTDEF
  8
0
 10
-0.00208
 20
-1.064976
 30
0.0
 40
0.01
  1
LINE STOP
  3
Type
  2
TYP
 70
     9
  0
ATTDEF
  8
0
 10
-0.00208
 20
-1.048309
 30
0.0
 40
0.01
  1
 
  3
Name
  2
SID
 70
     9
  0
LINE
  8
0
 10
0.0
 20
0.0
 30
0.0
 11
0.0
 21
-0.85
 31
0.0
  0
LINE
  8
0
 10
0.15
 20
-0.85
 30
0.0
 11
0.15
 21
-1.0
 31
0.0
  0
LINE
  8
0
 10
0.075
 20
-1.0
 30
0.0
 11
0.075
 21
-0.85
 31
0.0
  0
LINE
  8
0
 10
0.0
 20
-1.0
 30
0.0
 11
0.0
 21
-0.85
 31
0.0
  0
LINE
  8
0
 10
-0.075
 20
-1.0
 30
0.0
 11
-0.075
 21
-0.85
 31
0.0
  0
LINE
  8
0
 10
-0.15
 20
-1.0
 30
0.0
 11
-0.15
 21
-0.85
 31
0.0
  0
LINE
  8
0
 10
-0.15
 20
-0.85
 30
0.0
 11
0.15
 21
-0.85
 31
0.0
  0
LINE
  8
0
 10
0.5
 20
-0.5
 30
0.0
 11
0.15
 21
-0.5
 31
0.0
  0
LINE
  8
0
 10
0.15
 20
-0.5
 30
0.0
 11
0.15
 21
-0.4625
 31
0.0
  0
LINE
  8
0
 10
0.15
 20
-0.4625
 30
0.0
 11
0.0
 21
-0.5
 31
0.0
  0
LINE
  8
0
 10
0.0
 20
-0.5
 30
0.0
 11
0.15
 21
-0.5375
 31
0.0
  0
LINE
  8
0
 10
0.15
 20
-0.5375
 30
0.0
 11
0.15
 21
-0.5
 31
0.0
  0
LINE
  8
0
 10
-0.5
 20
-0.5
 30
0.0
 11
-0.15
 21
-0.5
 31
0.0
  0
LINE
  8
0
 10
-0.15
 20
-0.5
 30
0.0
 11
-0.15
 21
-0.5375
 31
0.0
  0
LINE
  8
0
 10
-0.15
 20
-0.5375
 30
0.0
 11
0.0
 21
-0.5
 31
0.0
  0
LINE
  8
0
 10
0.0
 20
-0.5
 30
0.0
 11
-0.15
 21
-0.4625
 31
0.0
  0
LINE
  8
0
 10
-0.15
 20
-0.4625
 30
0.0
 11
-0.15
 21
-0.5
 31
0.0
  0
ENDBLK
  8
0
  0
BLOCK
  8
0
  2
INCLINED
 70
    66
 10
0.0
 20
0.0
 30
0.0
  3
INCLINED
  0
ATTDEF
  8
0
 10
0.001223
 20
1.011473
 30
0.0
 40
0.01
  1
 
  3
Direction
  2
DIR
 70
     9
  0
ATTDEF
  8
0
 10
0.001223
 20
1.02814
 30
0.0
 40
0.01
  1
 
  3
Spring Rate
  2
RAT
 70
     9
  0
ATTDEF
  8
0
 10
0.001223
 20
1.044807
 30
0.0
 40
0.01
  1
 
  3
Gap Backward
  2
GBK
 70
     9
  0
ATTDEF
  8
0
 10
0.001223
 20
1.061473
 30
0.0
 40
0.01
  1
 
  3
Gap Forward
  2
GFO
 70
     9
  0
ATTDEF
  8
0
 10
0.001223
 20
1.07814
 30
0.0
 40
0.01
  1
INCLINED SUPPORT
  3
TYPE
  2
TYP
 70
     9
  0
ATTDEF
  8
0
 10
0.001223
 20
1.094807
 30
0.0
 40
0.01
  1
 
  3
Name
  2
SID
 70
     9
  0
LINE
  8
0
 10
-0.2
 20
0.9
 30
0.0
 11
-0.2
 21
1.0
 31
0.0
  0
LINE
  8
0
 10
-0.1
 20
0.9
 30
0.0
 11
-0.1
 21
1.0
 31
0.0
  0
LINE
  8
0
 10
0.1
 20
0.9
 30
0.0
 11
0.1
 21
1.0
 31
0.0
  0
LINE
  8
0
 10
0.2
 20
0.9
 30
0.0
 11
0.2
 21
1.0
 31
0.0
  0
LINE
  8
0
 10
0.0
 20
0.8
 30
0.0
 11
-0.2
 21
0.7
 31
0.0
  0
LINE
  8
0
 10
0.0
 20
1.0
 30
0.0
 11
0.0
 21
0.8
 31
0.0
  0
POLYLINE
  8
0
 66
     1
 10
0.0
 20
0.0
 30
0.0
 70
     1
  0
VERTEX
  8
0
 10
0.000485
 20
0.036788
 30
0.0
  0
VERTEX
  8
0
 10
-0.000485
 20
0.036788
 30
0.0
  0
VERTEX
  8
0
 10
0.0
 20
0.035575
 30
0.0
  0
SEQEND
  8
0
  0
POLYLINE
  8
0
 66
     1
 10
0.0
 20
0.0
 30
0.0
 70
     1
  0
VERTEX
  8
0
 10
0.00166
 20
0.037583
 30
0.0
  0
VERTEX
  8
0
 10
-0.00166
 20
0.037583
 30
0.0
  0
VERTEX
  8
0
 10
0.0
 20
0.033434
 30
0.0
  0
SEQEND
  8
0
  0
POLYLINE
  8
0
 66
     1
 10
0.0
 20
0.0
 30
0.0
 70
     1
  0
VERTEX
  8
0
 10
0.002665
 20
0.038264
 30
0.0
  0
VERTEX
  8
0
 10
-0.002665
 20
0.038264
 30
0.0
  0
VERTEX
  8
0
 10
0.0
 20
0.031601
 30
0.0
  0
SEQEND
  8
0
  0
POLYLINE
  8
0
 66
     1
 10
0.0
 20
0.0
 30
0.0
 70
     1
  0
VERTEX
  8
0
 10
0.003671
 20
0.038945
 30
0.0
  0
VERTEX
  8
0
 10
-0.003671
 20
0.038945
 30
0.0
  0
VERTEX
  8
0
 10
0.0
 20
0.029768
 30
0.0
  0
SEQEND
  8
0
  0
POLYLINE
  8
0
 66
     1
 10
0.0
 20
0.0
 30
0.0
 70
     1
  0
VERTEX
  8
0
 10
0.005091
 20
0.039906
 30
0.0
  0
VERTEX
  8
0
 10
-0.005091
 20
0.039906
 30
0.0
  0
VERTEX
  8
0
 10
0.0
 20
0.027179
 30
0.0
  0
SEQEND
  8
0
  0
POLYLINE
  8
0
 66
     1
 10
0.0
 20
0.0
 30
0.0
 70
     1
  0
VERTEX
  8
0
 10
0.006626
 20
0.040945
 30
0.0
  0
VERTEX
  8
0
 10
-0.006626
 20
0.040945
 30
0.0
  0
VERTEX
  8
0
 10
0.0
 20
0.02438
 30
0.0
  0
SEQEND
  8
0
  0
POLYLINE
  8
0
 66
     1
 10
0.0
 20
0.0
 30
0.0
 70
     1
  0
VERTEX
  8
0
 10
0.007896
 20
0.041805
 30
0.0
  0
VERTEX
  8
0
 10
-0.007896
 20
0.041805
 30
0.0
  0
VERTEX
  8
0
 10
0.0
 20
0.022065
 30
0.0
  0
SEQEND
  8
0
  0
POLYLINE
  8
0
 66
     1
 10
0.0
 20
0.0
 30
0.0
 70
     1
  0
VERTEX
  8
0
 10
0.009432
 20
0.042845
 30
0.0
  0
VERTEX
  8
0
 10
-0.009432
 20
0.042845
 30
0.0
  0
VERTEX
  8
0
 10
0.0
 20
0.019266
 30
0.0
  0
SEQEND
  8
0
  0
POLYLINE
  8
0
 66
     1
 10
0.0
 20
0.0
 30
0.0
 70
     1
  0
VERTEX
  8
0
 10
0.010702
 20
0.043705
 30
0.0
  0
VERTEX
  8
0
 10
-0.010702
 20
0.043705
 30
0.0
  0
VERTEX
  8
0
 10
0.0
 20
0.01695
 30
0.0
  0
SEQEND
  8
0
  0
POLYLINE
  8
0
 66
     1
 10
0.0
 20
0.0
 30
0.0
 70
     1
  0
VERTEX
  8
0
 10
0.011972
 20
0.044565
 30
0.0
  0
VERTEX
  8
0
 10
-0.011972
 20
0.044565
 30
0.0
  0
VERTEX
  8
0
 10
0.0
 20
0.014634
 30
0.0
  0
SEQEND
  8
0
  0
POLYLINE
  8
0
 66
     1
 10
0.0
 20
0.0
 30
0.0
 70
     1
  0
VERTEX
  8
0
 10
0.013243
 20
0.045425
 30
0.0
  0
VERTEX
  8
0
 10
-0.013243
 20
0.045425
 30
0.0
  0
VERTEX
  8
0
 10
0.0
 20
0.012319
 30
0.0
  0
SEQEND
  8
0
  0
POLYLINE
  8
0
 66
     1
 10
0.0
 20
0.0
 30
0.0
 70
     1
  0
VERTEX
  8
0
 10
0.014778
 20
0.046464
 30
0.0
  0
VERTEX
  8
0
 10
-0.014778
 20
0.046464
 30
0.0
  0
VERTEX
  8
0
 10
0.0
 20
0.00952
 30
0.0
  0
SEQEND
  8
0
  0
POLYLINE
  8
0
 66
     1
 10
0.0
 20
0.0
 30
0.0
 70
     1
  0
VERTEX
  8
0
 10
0.016313
 20
0.047504
 30
0.0
  0
VERTEX
  8
0
 10
-0.016313
 20
0.047504
 30
0.0
  0
VERTEX
  8
0
 10
0.0
 20
0.006721
 30
0.0
  0
SEQEND
  8
0
  0
POLYLINE
  8
0
 66
     1
 10
0.0
 20
0.0
 30
0.0
 70
     1
  0
VERTEX
  8
0
 10
0.018228
 20
0.0488
 30
0.0
  0
VERTEX
  8
0
 10
-0.018228
 20
0.0488
 30
0.0
  0
VERTEX
  8
0
 10
0.0
 20
0.00323
 30
0.0
  0
SEQEND
  8
0
  0
POLYLINE
  8
0
 66
     1
 10
0.0
 20
0.0
 30
0.0
 70
     1
  0
VERTEX
  8
0
 10
0.02
 20
0.05
 30
0.0
  0
VERTEX
  8
0
 10
-0.02
 20
0.05
 30
0.0
  0
VERTEX
  8
0
 10
0.0
 20
0.0
 30
0.0
  0
SEQEND
  8
0
  0
LINE
  8
0
 10
0.0
 20
0.29
 30
0.0
 11
0.0
 21
0.0
 31
0.0
  0
LINE
  8
0
 10
-0.2
 20
0.5
 30
0.0
 11
0.2
 21
0.5
 31
0.0
  0
LINE
  8
0
 10
-0.2
 20
0.9
 30
0.0
 11
0.2
 21
0.9
 31
0.0
  0
LINE
  8
0
 10
-0.2
 20
0.7
 30
0.0
 11
0.2
 21
0.7
 31
0.0
  0
LINE
  8
0
 10
0.2
 20
0.7
 30
0.0
 11
-0.2
 21
0.6
 31
0.0
  0
LINE
  8
0
 10
-0.2
 20
0.6
 30
0.0
 11
0.2
 21
0.6
 31
0.0
  0
LINE
  8
0
 10
0.2
 20
0.6
 30
0.0
 11
-0.2
 21
0.5
 31
0.0
  0
LINE
  8
0
 10
0.2
 20
0.5
 30
0.0
 11
-0.2
 21
0.4
 31
0.0
  0
LINE
  8
0
 10
-0.2
 20
0.4
 30
0.0
 11
0.2
 21
0.4
 31
0.0
  0
LINE
  8
0
 10
0.2
 20
0.4
 30
0.0
 11
0.0
 21
0.29
 31
0.0
  0
ENDBLK
  8
0
  0
BLOCK
  8
0
  2
GUIDE
 70
    66
 10
0.0
 20
0.0
 30
0.0
  3
GUIDE
  0
ATTDEF
  8
0
 10
0.002347
 20
-0.679469
 30
0.0
 40
0.01
  1
 
  3
Friction Coefficient
  2
FCF
 70
     9
  0
ATTDEF
  8
0
 10
0.002347
 20
-0.662802
 30
0.0
 40
0.01
  1
 
  3
Stiffness
  2
STF
 70
     9
  0
ATTDEF
  8
0
 10
0.002347
 20
-0.646135
 30
0.0
 40
0.01
  1
 
  3
Gap Right
  2
GRI
 70
     9
  0
ATTDEF
  8
0
 10
0.002347
 20
-0.629469
 30
0.0
 40
0.01
  1
 
  3
Gap Left
  2
GLF
 70
     9
  0
ATTDEF
  8
0
 10
0.002347
 20
-0.612802
 30
0.0
 40
0.01
  1
 
  3
Gap Down
  2
GDN
 70
     9
  0
ATTDEF
  8
0
 10
0.002347
 20
-0.596135
 30
0.0
 40
0.01
  1
 
  3
Gap Up
  2
GUP
 70
     9
  0
ATTDEF
  8
0
 10
0.002347
 20
-0.579469
 30
0.0
 40
0.01
  1
GUIDE SUPPORT
  3
Type
  2
TYP
 70
     9
  0
ATTDEF
  8
0
 10
0.002347
 20
-0.562802
 30
0.0
 40
0.01
  1
 
  3
Name
  2
SID
 70
     9
  0
POLYLINE
  8
0
 66
     1
 10
0.0
 20
0.0
 30
0.0
210
-1.0
220
0.0
230
0.0
  0
VERTEX
  8
0
 10
-0.5
 20
0.0
 30
0.0
  0
VERTEX
  8
0
 10
-0.15
 20
0.0
 30
0.0
  0
VERTEX
  8
0
 10
-0.15
 20
-0.0375
 30
0.0
  0
VERTEX
  8
0
 10
0.0
 20
0.0
 30
0.0
  0
VERTEX
  8
0
 10
-0.15
 20
0.0375
 30
0.0
  0
VERTEX
  8
0
 10
-0.15
 20
0.0
 30
0.0
  0
SEQEND
  8
0
  0
POLYLINE
  8
0
 66
     1
 10
0.0
 20
0.0
 30
0.0
210
-1.0
220
0.0
230
0.0
  0
VERTEX
  8
0
 10
0.5
 20
0.0
 30
0.0
  0
VERTEX
  8
0
 10
0.15
 20
0.0
 30
0.0
  0
VERTEX
  8
0
 10
0.15
 20
0.0375
 30
0.0
  0
VERTEX
  8
0
 10
0.0
 20
0.0
 30
0.0
  0
VERTEX
  8
0
 10
0.15
 20
-0.0375
 30
0.0
  0
VERTEX
  8
0
 10
0.15
 20
0.0
 30
0.0
  0
SEQEND
  8
0
  0
LINE
  8
0
 10
0.0
 20
0.425
 30
0.075
 11
0.0
 21
0.425
 31
-0.075
210
-1.0
220
0.0
230
0.0
  0
LINE
  8
0
 10
0.0
 20
0.5
 30
0.075
 11
0.0
 21
0.425
 31
0.075
210
-1.0
220
0.0
230
0.0
  0
LINE
  8
0
 10
0.0
 20
0.5
 30
0.0375
 11
0.0
 21
0.425
 31
0.0375
210
-1.0
220
0.0
230
0.0
  0
LINE
  8
0
 10
0.0
 20
0.5
 30
0.0
 11
0.0
 21
0.425
 31
0.0
210
-1.0
220
0.0
230
0.0
  0
LINE
  8
0
 10
0.0
 20
0.5
 30
-0.0375
 11
0.0
 21
0.425
 31
-0.0375
210
-1.0
220
0.0
230
0.0
  0
LINE
  8
0
 10
0.0
 20
0.425
 30
-0.075
 11
0.0
 21
0.5
 31
-0.075
210
-1.0
220
0.0
230
0.0
  0
LINE
  8
0
 10
0.0
 20
-0.425
 30
-0.075
 11
0.0
 21
-0.425
 31
0.075
210
-1.0
220
0.0
230
0.0
  0
LINE
  8
0
 10
0.0
 20
-0.5
 30
-0.075
 11
0.0
 21
-0.425
 31
-0.075
210
-1.0
220
0.0
230
0.0
  0
LINE
  8
0
 10
0.0
 20
-0.5
 30
-0.0375
 11
0.0
 21
-0.425
 31
-0.0375
210
-1.0
220
0.0
230
0.0
  0
LINE
  8
0
 10
0.0
 20
-0.5
 30
0.0
 11
0.0
 21
-0.425
 31
0.0
210
-1.0
220
0.0
230
0.0
  0
LINE
  8
0
 10
0.0
 20
-0.5
 30
0.0375
 11
0.0
 21
-0.425
 31
0.0375
210
-1.0
220
0.0
230
0.0
  0
LINE
  8
0
 10
0.0
 20
-0.425
 30
0.075
 11
0.0
 21
-0.5
 31
0.075
210
-1.0
220
0.0
230
0.0
  0
POLYLINE
  8
0
 66
     1
 10
0.0
 20
0.0
 30
0.0
210
0.0
220
-1.0
230
0.0
  0
VERTEX
  8
0
 10
0.0
 20
0.5
 30
0.0
  0
VERTEX
  8
0
 10
0.0
 20
0.15
 30
0.0
  0
VERTEX
  8
0
 10
-0.0375
 20
0.15
 30
0.0
  0
VERTEX
  8
0
 10
0.0
 20
0.0
 30
0.0
  0
VERTEX
  8
0
 10
0.0375
 20
0.15
 30
0.0
  0
VERTEX
  8
0
 10
0.0
 20
0.15
 30
0.0
  0
SEQEND
  8
0
  0
POLYLINE
  8
0
 66
     1
 10
0.0
 20
0.0
 30
0.0
210
0.0
220
-1.0
230
0.0
  0
VERTEX
  8
0
 10
0.0
 20
-0.5
 30
0.0
  0
VERTEX
  8
0
 10
0.0
 20
-0.15
 30
0.0
  0
VERTEX
  8
0
 10
0.0375
 20
-0.15
 30
0.0
  0
VERTEX
  8
0
 10
0.0
 20
0.0
 30
0.0
  0
VERTEX
  8
0
 10
-0.0375
 20
-0.15
 30
0.0
  0
VERTEX
  8
0
 10
0.0
 20
-0.15
 30
0.0
  0
SEQEND
  8
0
  0
LINE
  8
0
 10
0.075
 20
0.0
 30
0.425
 11
-0.075
 21
0.0
 31
0.425
210
0.0
220
-1.0
230
0.0
  0
LINE
  8
0
 10
0.075
 20
0.0
 30
0.5
 11
0.075
 21
0.0
 31
0.425
210
0.0
220
-1.0
230
0.0
  0
LINE
  8
0
 10
0.0375
 20
0.0
 30
0.5
 11
0.0375
 21
0.0
 31
0.425
210
0.0
220
-1.0
230
0.0
  0
LINE
  8
0
 10
0.0
 20
0.0
 30
0.5
 11
0.0
 21
0.0
 31
0.425
210
0.0
220
-1.0
230
0.0
  0
LINE
  8
0
 10
-0.0375
 20
0.0
 30
0.5
 11
-0.0375
 21
0.0
 31
0.425
210
0.0
220
-1.0
230
0.0
  0
LINE
  8
0
 10
-0.075
 20
0.0
 30
0.425
 11
-0.075
 21
0.0
 31
0.5
210
0.0
220
-1.0
230
0.0
  0
LINE
  8
0
 10
-0.075
 20
0.0
 30
-0.425
 11
0.075
 21
0.0
 31
-0.425
210
0.0
220
-1.0
230
0.0
  0
LINE
  8
0
 10
-0.075
 20
0.0
 30
-0.5
 11
-0.075
 21
0.0
 31
-0.425
210
0.0
220
-1.0
230
0.0
  0
LINE
  8
0
 10
-0.0375
 20
0.0
 30
-0.5
 11
-0.0375
 21
0.0
 31
-0.425
210
0.0
220
-1.0
230
0.0
  0
LINE
  8
0
 10
0.0
 20
0.0
 30
-0.5
 11
0.0
 21
0.0
 31
-0.425
210
0.0
220
-1.0
230
0.0
  0
LINE
  8
0
 10
0.0375
 20
0.0
 30
-0.5
 11
0.0375
 21
0.0
 31
-0.425
210
0.0
220
-1.0
230
0.0
  0
LINE
  8
0
 10
0.075
 20
0.0
 30
-0.425
 11
0.075
 21
0.0
 31
-0.5
210
0.0
220
-1.0
230
0.0
  0
ENDBLK
  8
0
  0
BLOCK
  8
0
  2
DAMPER
 70
    66
 10
0.0
 20
0.0
 30
0.0
  3
DAMPER
  0
ATTDEF
  8
0
 10
-0.00014
 20
1.051449
 30
0.0
 40
0.01
  1
 
  3
Direction
  2
DIR
 70
     9
  0
ATTDEF
  8
0
 10
-0.00014
 20
1.068116
 30
0.0
 40
0.01
  1
 
  3
Stiffness
  2
STF
 70
     9
  0
ATTDEF
  8
0
 10
-0.00014
 20
1.084783
 30
0.0
 40
0.01
  1
DAMPER SUPPORT
  3
Type
  2
TYP
 70
     9
  0
ATTDEF
  8
0
 10
-0.00014
 20
1.101449
 30
0.0
 40
0.01
  1
 
  3
 
  2
SID
 70
     9
  0
LINE
  8
0
 10
0.15
 20
0.85
 30
0.0
 11
-0.15
 21
0.85
 31
0.0
  0
LINE
  8
0
 10
0.15
 20
1.0
 30
0.0
 11
0.15
 21
0.85
 31
0.0
  0
LINE
  8
0
 10
0.075
 20
1.0
 30
0.0
 11
0.075
 21
0.85
 31
0.0
  0
LINE
  8
0
 10
0.0
 20
1.0
 30
0.0
 11
0.0
 21
0.85
 31
0.0
  0
LINE
  8
0
 10
-0.075
 20
1.0
 30
0.0
 11
-0.075
 21
0.85
 31
0.0
  0
LINE
  8
0
 10
-0.15
 20
0.85
 30
0.0
 11
-0.15
 21
1.0
 31
0.0
  0
LINE
  8
0
 10
0.0
 20
0.7
 30
0.0
 11
0.0
 21
0.85
 31
0.0
  0
LINE
  8
0
 10
-0.15
 20
0.4
 30
0.0
 11
0.0
 21
0.4
 31
0.0
  0
LINE
  8
0
 10
-0.15
 20
0.7
 30
0.0
 11
-0.15
 21
0.15
 31
0.0
  0
LINE
  8
0
 10
0.15
 20
0.7
 30
0.0
 11
-0.15
 21
0.7
 31
0.0
  0
LINE
  8
0
 10
0.15
 20
0.15
 30
0.0
 11
0.15
 21
0.7
 31
0.0
  0
LINE
  8
0
 10
0.0
 20
0.4
 30
0.0
 11
0.15
 21
0.4
 31
0.0
  0
LINE
  8
0
 10
0.0
 20
0.0
 30
0.0
 11
0.0
 21
0.4
 31
0.0
  0
ENDBLK
  8
0
  0
BLOCK
  8
0
  2
RESTRNT
 70
    66
 10
0.0
 20
0.0
 30
0.0
  3
RESTRNT
  0
ATTDEF
  8
0
 10
-0.001799
 20
1.022464
 30
0.0
 40
0.01
  1
 
  3
Direction
  2
DIR
 70
     9
  0
ATTDEF
  8
0
 10
-0.001799
 20
1.03913
 30
0.0
 40
0.01
  1
 
  3
Rotational Stiffness
  2
RST
 70
     9
  0
ATTDEF
  8
0
 10
-0.001799
 20
1.055797
 30
0.0
 40
0.01
  1
ROTATIONAL RESTRAINT
  3
Type
  2
TYP
 70
     9
  0
ATTDEF
  8
0
 10
-0.001799
 20
1.072464
 30
0.0
 40
0.01
  1
 
  3
Name
  2
SID
 70
     9
  0
LINE
  8
0
 10
0.2
 20
0.8
 30
0.0
 11
-0.2
 21
0.8
 31
0.0
  0
LINE
  8
0
 10
0.2
 20
1.0
 30
0.0
 11
0.2
 21
0.8
 31
0.0
  0
LINE
  8
0
 10
0.1
 20
1.0
 30
0.0
 11
0.1
 21
0.8
 31
0.0
  0
LINE
  8
0
 10
0.0
 20
1.0
 30
0.0
 11
0.0
 21
0.8
 31
0.0
  0
LINE
  8
0
 10
-0.1
 20
1.0
 30
0.0
 11
-0.1
 21
0.8
 31
0.0
  0
LINE
  8
0
 10
-0.2
 20
0.8
 30
0.0
 11
-0.2
 21
1.0
 31
0.0
  0
LINE
  8
0
 10
0.0
 20
0.4
 30
0.0
 11
0.0
 21
0.8
 31
0.0
  0
LINE
  8
0
 10
-0.1
 20
0.4
 30
0.0
 11
0.0
 21
0.4
 31
0.0
  0
LINE
  8
0
 10
-0.1
 20
0.5
 30
0.0
 11
-0.1
 21
0.4
 31
0.0
  0
LINE
  8
0
 10
0.1
 20
0.5
 30
0.0
 11
-0.1
 21
0.5
 31
0.0
  0
LINE
  8
0
 10
0.1
 20
0.3
 30
0.0
 11
0.1
 21
0.5
 31
0.0
  0
LINE
  8
0
 10
-0.2
 20
0.3
 30
0.0
 11
0.1
 21
0.3
 31
0.0
  0
LINE
  8
0
 10
-0.2
 20
0.6
 30
0.0
 11
-0.2
 21
0.3
 31
0.0
  0
LINE
  8
0
 10
0.2
 20
0.6
 30
0.0
 11
-0.2
 21
0.6
 31
0.0
  0
LINE
  8
0
 10
0.2
 20
0.2
 30
0.0
 11
0.2
 21
0.6
 31
0.0
  0
LINE
  8
0
 10
0.0
 20
0.2
 30
0.0
 11
0.2
 21
0.2
 31
0.0
  0
LINE
  8
0
 10
0.0
 20
0.0
 30
0.0
 11
0.0
 21
0.2
 31
0.0
  0
ENDBLK
  8
0
  0
BLOCK
  8
0
  2
TIE
 70
    66
 10
0.0
 20
0.0
 30
0.0
  3
TIE
  0
ATTDEF
  8
0
 10
0.511214
 20
0.144928
 30
0.0
 40
0.01
  1
 
  3
Friction Coefficient
  2
FCF
 70
     9
  0
ATTDEF
  8
0
 10
0.511214
 20
0.161594
 30
0.0
 40
0.01
  1
 
  3
Gap Backward
  2
GBK
 70
     9
  0
ATTDEF
  8
0
 10
0.511214
 20
0.178261
 30
0.0
 40
0.01
  1
 
  3
Gap Forward
  2
GFO
 70
     9
  0
ATTDEF
  8
0
 10
0.511214
 20
0.194928
 30
0.0
 40
0.01
  1
 
  3
Spring Rate
  2
RAT
 70
     9
  0
ATTDEF
  8
0
 10
0.511214
 20
0.211594
 30
0.0
 40
0.01
  1
TIE/LINK SUPPORT
  3
Type
  2
TYP
 70
     9
  0
ATTDEF
  8
0
 10
0.511214
 20
0.228261
 30
0.0
 40
0.01
  1
 
  3
Name
  2
SID
 70
     9
  0
LINE
  8
0
 10
0.0
 20
0.0
 30
0.0
 11
1.0
 21
0.0
 31
0.0
  0
ENDBLK
  8
0
  0
ENDSEC
  0
SECTION
  2
ENTITIES
  0
INSERT
  8
BORDER
  2
ABORD
 10
-23.312500
 20
72.687500
 30
-12.000000
 41
44.000000
 42
44.000000
 43
44.000000
 66
     1
  0
ATTRIB
  8
BORDER
 10
-23.312500
 20
72.687500
 30
-12.000000
 40
0.010000
  1
1 inch =       44.0 inch
  2
SCL
 70
     9
  0
SEQEND
  8
0
  0
INSERT
  8
RUN
  2
RUN
 10
120.000000
 20
120.000000
 30
0.000000
 41
72.000000
 42
0.100000
 43
0.100000
 50
90.000000
 66
     1
  0
ATTRIB
  8
RUN
 10
120.000000
 20
156.000000
 30
0.000000
 40
0.010000
  1
A106-A
  2
MAT
 70
     9
 50
90.000000
  0
ATTRIB
  8
RUN
 10
120.000000
 20
156.000000
 30
0.000000
 40
0.010000
  1
STD
  2
SCH
 70
     9
 50
90.000000
  0
ATTRIB
  8
RUN
 10
120.000000
 20
156.000000
 30
0.000000
 40
0.010000
  1
6.000000 inch
  2
NOM
 70
     9
 50
90.000000
  0
SEQEND
  8
0
  0
INSERT
  8
FLXJNT
  2
FLXJNT
 10
120.000000
 20
192.000000
 30
0.000000
 41
12.000000
 42
6.625000
 43
6.625000
 50
90.000000
  0
INSERT
  8
RUN
  2
RUN
 10
120.000000
 20
204.000000
 30
0.000000
 41
66.000000
 42
0.100000
 43
0.100000
 50
90.000000
 66
     1
  0
ATTRIB
  8
RUN
 10
120.000000
 20
237.000000
 30
0.000000
 40
0.010000
  1
A106-A
  2
MAT
 70
     9
 50
90.000000
  0
ATTRIB
  8
RUN
 10
120.000000
 20
237.000000
 30
0.000000
 40
0.010000
  1
STD
  2
SCH
 70
     9
 50
90.000000
  0
ATTRIB
  8
RUN
 10
120.000000
 20
237.000000
 30
0.000000
 40
0.010000
  1
6.000000 inch
  2
NOM
 70
     9
 50
90.000000
  0
SEQEND
  8
0
  0
POLYLINE
  8
BEND
 66
     1
 10
0.000000
 20
0.000000
 30
-120.000000
 40
0.100000
 41
0.100000
210
-1.0000000
220
0.0000000
230
0.0000000
  0
VERTEX
  8
BEND
 10
-276.000000
 20
6.000000
 30
-120.000000
 42
0.414213
  0
VERTEX
  8
BEND
 10
-270.000000
 20
0.000000
 30
-120.000000
 42
0.414213
  0
SEQEND
  8
0
  0
INSERT
  8
RUN
  2
RUN
 10
-120.000000
 20
6.000000
 30
276.000000
 41
30.000000
 42
0.100000
 43
0.100000
 50
90.000000
210
0.0000000
220
1.0000000
230
0.0000000
 66
     1
  0
ATTRIB
  8
RUN
 10
120.000000
 20
276.000000
 30
21.000000
 40
0.010000
  1
A106-A
  2
MAT
 70
     9
 50
90.000000
210
0.0000000
220
1.0000000
230
0.0000000
  0
ATTRIB
  8
RUN
 10
120.000000
 20
276.000000
 30
21.000000
 40
0.010000
  1
STD
  2
SCH
 70
     9
 50
90.000000
210
0.0000000
220
1.0000000
230
0.0000000
  0
ATTRIB
  8
RUN
 10
120.000000
 20
276.000000
 30
21.000000
 40
0.010000
  1
6.000000 inch
  2
NOM
 70
     9
 50
90.000000
210
0.0000000
220
1.0000000
230
0.0000000
  0
SEQEND
  8
0
  0
INSERT
  8
REDUCER
  2
REDUCER
 10
-120.000000
 20
36.000000
 30
276.000000
 41
12.000000
 42
12.000000
 43
12.000000
 50
90.000000
210
0.0000000
220
1.0000000
230
0.0000000
  0
INSERT
  8
RUN
  2
RUN
 10
-120.000000
 20
48.000000
 30
276.000000
 41
36.000000
 42
0.100000
 43
0.100000
 50
90.000000
210
0.0000000
220
1.0000000
230
0.0000000
 66
     1
  0
ATTRIB
  8
RUN
 10
120.000000
 20
276.000000
 30
66.000000
 40
0.010000
  1
A106-A
  2
MAT
 70
     9
 50
90.000000
210
0.0000000
220
1.0000000
230
0.0000000
  0
ATTRIB
  8
RUN
 10
120.000000
 20
276.000000
 30
66.000000
 40
0.010000
  1
40
  2
SCH
 70
     9
 50
90.000000
210
0.0000000
220
1.0000000
230
0.0000000
  0
ATTRIB
  8
RUN
 10
120.000000
 20
276.000000
 30
66.000000
 40
0.010000
  1
2.000000 inch
  2
NOM
 70
     9
 50
90.000000
210
0.0000000
220
1.0000000
230
0.0000000
  0
SEQEND
  8
0
  0
INSERT
  8
RUN
  2
RUN
 10
-120.000000
 20
84.000000
 30
276.000000
 41
9.000000
 42
0.100000
 43
0.100000
 50
90.000000
210
0.0000000
220
1.0000000
230
0.0000000
 66
     1
  0
ATTRIB
  8
RUN
 10
120.000000
 20
276.000000
 30
88.500000
 40
0.010000
  1
A106-A
  2
MAT
 70
     9
 50
90.000000
210
0.0000000
220
1.0000000
230
0.0000000
  0
ATTRIB
  8
RUN
 10
120.000000
 20
276.000000
 30
88.500000
 40
0.010000
  1
40
  2
SCH
 70
     9
 50
90.000000
210
0.0000000
220
1.0000000
230
0.0000000
  0
ATTRIB
  8
RUN
 10
120.000000
 20
276.000000
 30
88.500000
 40
0.010000
  1
2.000000 inch
  2
NOM
 70
     9
 50
90.000000
210
0.0000000
220
1.0000000
230
0.0000000
  0
SEQEND
  8
0
  0
POLYLINE
  8
BEND
 66
     1
 10
0.000000
 20
0.000000
 30
276.000000
 40
0.100000
 41
0.100000
210
0.0000000
220
1.0000000
230
0.0000000
  0
VERTEX
  8
BEND
 10
-117.000000
 20
96.000000
 30
276.000000
 42
0.414213
  0
VERTEX
  8
BEND
 10
-120.000000
 20
93.000000
 30
276.000000
 42
0.414213
  0
SEQEND
  8
0
  0
INSERT
  8
RUN
  2
RUN
 10
-96.000000
 20
93.000000
 30
276.000000
 41
33.000000
 42
0.100000
 43
0.100000
 50
270.000000
210
0.0000000
220
1.0000000
230
0.0000000
 66
     1
  0
ATTRIB
  8
RUN
 10
96.000000
 20
276.000000
 30
76.500000
 40
0.010000
  1
A106-A
  2
MAT
 70
     9
 50
270.000000
210
0.0000000
220
1.0000000
230
0.0000000
  0
ATTRIB
  8
RUN
 10
96.000000
 20
276.000000
 30
76.500000
 40
0.010000
  1
40
  2
SCH
 70
     9
 50
270.000000
210
0.0000000
220
1.0000000
230
0.0000000
  0
ATTRIB
  8
RUN
 10
96.000000
 20
276.000000
 30
76.500000
 40
0.010000
  1
2.000000 inch
  2
NOM
 70
     9
 50
270.000000
210
0.0000000
220
1.0000000
230
0.0000000
  0
SEQEND
  8
0
  0
INSERT
  8
RUN
  2
RUN
 10
-96.000000
 20
60.000000
 30
276.000000
 41
36.000000
 42
0.100000
 43
0.100000
 50
270.000000
210
0.0000000
220
1.0000000
230
0.0000000
 66
     1
  0
ATTRIB
  8
RUN
 10
96.000000
 20
276.000000
 30
42.000000
 40
0.010000
  1
A106-A
  2
MAT
 70
     9
 50
270.000000
210
0.0000000
220
1.0000000
230
0.0000000
  0
ATTRIB
  8
RUN
 10
96.000000
 20
276.000000
 30
42.000000
 40
0.010000
  1
40
  2
SCH
 70
     9
 50
270.000000
210
0.0000000
220
1.0000000
230
0.0000000
  0
ATTRIB
  8
RUN
 10
96.000000
 20
276.000000
 30
42.000000
 40
0.010000
  1
2.000000 inch
  2
NOM
 70
     9
 50
270.000000
210
0.0000000
220
1.0000000
230
0.0000000
  0
SEQEND
  8
0
  0
INSERT
  8
RUN
  2
RUN
 10
-96.000000
 20
24.000000
 30
276.000000
 41
33.000000
 42
0.100000
 43
0.100000
 50
270.000000
210
0.0000000
220
1.0000000
230
0.0000000
 66
     1
  0
ATTRIB
  8
RUN
 10
96.000000
 20
276.000000
 30
7.500000
 40
0.010000
  1
A106-A
  2
MAT
 70
     9
 50
270.000000
210
0.0000000
220
1.0000000
230
0.0000000
  0
ATTRIB
  8
RUN
 10
96.000000
 20
276.000000
 30
7.500000
 40
0.010000
  1
40
  2
SCH
 70
     9
 50
270.000000
210
0.0000000
220
1.0000000
230
0.0000000
  0
ATTRIB
  8
RUN
 10
96.000000
 20
276.000000
 30
7.500000
 40
0.010000
  1
2.000000 inch
  2
NOM
 70
     9
 50
270.000000
210
0.0000000
220
1.0000000
230
0.0000000
  0
SEQEND
  8
0
  0
POLYLINE
  8
BEND
 66
     1
 10
0.000000
 20
0.000000
 30
-96.000000
 40
0.100000
 41
0.100000
210
-1.0000000
220
0.0000000
230
0.0000000
  0
VERTEX
  8
BEND
 10
-279.000000
 20
-12.000000
 30
-96.000000
 42
0.414213
  0
VERTEX
  8
BEND
 10
-276.000000
 20
-9.000000
 30
-96.000000
 42
0.414213
  0
SEQEND
  8
0
  0
INSERT
  8
RUN
  2
RUN
 10
96.000000
 20
279.000000
 30
-12.000000
 41
21.000000
 42
0.100000
 43
0.100000
 50
90.000000
 66
     1
  0
ATTRIB
  8
RUN
 10
96.000000
 20
289.500000
 30
-12.000000
 40
0.010000
  1
A106-A
  2
MAT
 70
     9
 50
90.000000
  0
ATTRIB
  8
RUN
 10
96.000000
 20
289.500000
 30
-12.000000
 40
0.010000
  1
40
  2
SCH
 70
     9
 50
90.000000
  0
ATTRIB
  8
RUN
 10
96.000000
 20
289.500000
 30
-12.000000
 40
0.010000
  1
2.000000 inch
  2
NOM
 70
     9
 50
90.000000
  0
SEQEND
  8
0
  0
INSERT
  8
RUN
  2
RUN
 10
96.000000
 20
300.000000
 30
-12.000000
 41
21.000000
 42
0.100000
 43
0.100000
 50
90.000000
 66
     1
  0
ATTRIB
  8
RUN
 10
96.000000
 20
310.500000
 30
-12.000000
 40
0.010000
  1
A106-A
  2
MAT
 70
     9
 50
90.000000
  0
ATTRIB
  8
RUN
 10
96.000000
 20
310.500000
 30
-12.000000
 40
0.010000
  1
40
  2
SCH
 70
     9
 50
90.000000
  0
ATTRIB
  8
RUN
 10
96.000000
 20
310.500000
 30
-12.000000
 40
0.010000
  1
2.000000 inch
  2
NOM
 70
     9
 50
90.000000
  0
SEQEND
  8
0
  0
POLYLINE
  8
BEND
 66
     1
 10
0.000000
 20
0.000000
 30
-96.000000
 40
0.100000
 41
0.100000
210
-1.0000000
220
0.0000000
230
0.0000000
  0
VERTEX
  8
BEND
 10
-324.000000
 20
-9.000000
 30
-96.000000
 42
0.414213
  0
VERTEX
  8
BEND
 10
-321.000000
 20
-12.000000
 30
-96.000000
 42
0.414213
  0
SEQEND
  8
0
  0
INSERT
  8
RUN
  2
RUN
 10
-96.000000
 20
-9.000000
 30
324.000000
 41
45.000000
 42
0.100000
 43
0.100000
 50
90.000000
210
0.0000000
220
1.0000000
230
0.0000000
 66
     1
  0
ATTRIB
  8
RUN
 10
96.000000
 20
324.000000
 30
13.500000
 40
0.010000
  1
A106-A
  2
MAT
 70
     9
 50
90.000000
210
0.0000000
220
1.0000000
230
0.0000000
  0
ATTRIB
  8
RUN
 10
96.000000
 20
324.000000
 30
13.500000
 40
0.010000
  1
40
  2
SCH
 70
     9
 50
90.000000
210
0.0000000
220
1.0000000
230
0.0000000
  0
ATTRIB
  8
RUN
 10
96.000000
 20
324.000000
 30
13.500000
 40
0.010000
  1
2.000000 inch
  2
NOM
 70
     9
 50
90.000000
210
0.0000000
220
1.0000000
230
0.0000000
  0
SEQEND
  8
0
  0
INSERT
  8
RUN
  2
RUN
 10
-96.000000
 20
36.000000
 30
324.000000
 41
30.000000
 42
0.100000
 43
0.100000
 50
90.000000
210
0.0000000
220
1.0000000
230
0.0000000
 66
     1
  0
ATTRIB
  8
RUN
 10
96.000000
 20
324.000000
 30
51.000000
 40
0.010000
  1
A106-A
  2
MAT
 70
     9
 50
90.000000
210
0.0000000
220
1.0000000
230
0.0000000
  0
ATTRIB
  8
RUN
 10
96.000000
 20
324.000000
 30
51.000000
 40
0.010000
  1
40
  2
SCH
 70
     9
 50
90.000000
210
0.0000000
220
1.0000000
230
0.0000000
  0
ATTRIB
  8
RUN
 10
96.000000
 20
324.000000
 30
51.000000
 40
0.010000
  1
2.000000 inch
  2
NOM
 70
     9
 50
90.000000
210
0.0000000
220
1.0000000
230
0.0000000
  0
SEQEND
  8
0
  0
INSERT
  8
RUN
  2
RUN
 10
-96.000000
 20
66.000000
 30
324.000000
 41
27.000000
 42
0.100000
 43
0.100000
 50
90.000000
210
0.0000000
220
1.0000000
230
0.0000000
 66
     1
  0
ATTRIB
  8
RUN
 10
96.000000
 20
324.000000
 30
79.500000
 40
0.010000
  1
A106-A
  2
MAT
 70
     9
 50
90.000000
210
0.0000000
220
1.0000000
230
0.0000000
  0
ATTRIB
  8
RUN
 10
96.000000
 20
324.000000
 30
79.500000
 40
0.010000
  1
40
  2
SCH
 70
     9
 50
90.000000
210
0.0000000
220
1.0000000
230
0.0000000
  0
ATTRIB
  8
RUN
 10
96.000000
 20
324.000000
 30
79.500000
 40
0.010000
  1
2.000000 inch
  2
NOM
 70
     9
 50
90.000000
210
0.0000000
220
1.0000000
230
0.0000000
  0
SEQEND
  8
0
  0
POLYLINE
  8
BEND
 66
     1
 10
0.000000
 20
0.000000
 30
324.000000
 40
0.100000
 41
0.100000
210
0.0000000
220
1.0000000
230
0.0000000
  0
VERTEX
  8
BEND
 10
-93.000000
 20
96.000000
 30
324.000000
 42
0.414213
  0
VERTEX
  8
BEND
 10
-96.000000
 20
93.000000
 30
324.000000
 42
0.414213
  0
SEQEND
  8
0
  0
INSERT
  8
RUN
  2
RUN
 10
93.000000
 20
324.000000
 30
96.000000
 41
33.000000
 42
0.100000
 43
0.100000
 50
180.000000
 66
     1
  0
ATTRIB
  8
RUN
 10
76.500000
 20
324.000000
 30
96.000000
 40
0.010000
  1
A106-A
  2
MAT
 70
     9
 50
180.000000
  0
ATTRIB
  8
RUN
 10
76.500000
 20
324.000000
 30
96.000000
 40
0.010000
  1
40
  2
SCH
 70
     9
 50
180.000000
  0
ATTRIB
  8
RUN
 10
76.500000
 20
324.000000
 30
96.000000
 40
0.010000
  1
2.000000 inch
  2
NOM
 70
     9
 50
180.000000
  0
SEQEND
  8
0
  0
INSERT
  8
RUN
  2
RUN
 10
96.000000
 20
300.000000
 30
-12.000000
 41
18.000000
 42
0.100000
 43
0.100000
 66
     1
  0
ATTRIB
  8
RUN
 10
105.000000
 20
300.000000
 30
-12.000000
 40
0.010000
  1
A312-TP304
  2
MAT
 70
     9
  0
ATTRIB
  8
RUN
 10
105.000000
 20
300.000000
 30
-12.000000
 40
0.010000
  1
10S
  2
SCH
 70
     9
  0
ATTRIB
  8
RUN
 10
105.000000
 20
300.000000
 30
-12.000000
 40
0.010000
  1
1.000000 inch
  2
NOM
 70
     9
  0
SEQEND
  8
0
  0
INSERT
  8
VALVE
  2
VALVE
 10
114.000000
 20
300.000000
 30
-12.000000
 41
3.240005
 42
1.315000
 43
1.315000
 66
     1
  0
ATTRIB
  8
VALVE
 10
115.620002
 20
300.000000
 30
-12.000000
 40
0.010000
  1
75.000000 lb
  2
WGT
 70
     9
  0
ATTRIB
  8
VALVE
 10
115.620002
 20
300.000000
 30
-12.000000
 40
0.010000
  1
NST
  2
RAT
 70
     9
  0
SEQEND
  8
0
  0
TEXT
  8
VALATT
 10
115.620002
 20
300.000000
 30
-12.000000
 40
0.250000
  1
NST
 50
0.000000
  0
INSERT
  8
RUN
  2
RUN
 10
117.240005
 20
300.000000
 30
-12.000000
 41
3.239997
 42
0.100000
 43
0.100000
 66
     1
  0
ATTRIB
  8
RUN
 10
118.860000
 20
300.000000
 30
-12.000000
 40
0.010000
  1
A312-TP304
  2
MAT
 70
     9
  0
ATTRIB
  8
RUN
 10
118.860000
 20
300.000000
 30
-12.000000
 40
0.010000
  1
10S
  2
SCH
 70
     9
  0
ATTRIB
  8
RUN
 10
118.860000
 20
300.000000
 30
-12.000000
 40
0.010000
  1
1.000000 inch
  2
NOM
 70
     9
  0
SEQEND
  8
0
  0
INSERT
  8
RUN
  2
RUN
 10
120.480003
 20
300.000000
 30
-12.000000
 41
24.000007
 42
0.100000
 43
0.100000
 66
     1
  0
ATTRIB
  8
RUN
 10
132.480011
 20
300.000000
 30
-12.000000
 40
0.010000
  1
A312-TP304
  2
MAT
 70
     9
  0
ATTRIB
  8
RUN
 10
132.480011
 20
300.000000
 30
-12.000000
 40
0.010000
  1
10S
  2
SCH
 70
     9
  0
ATTRIB
  8
RUN
 10
132.480011
 20
300.000000
 30
-12.000000
 40
0.010000
  1
1.000000 inch
  2
NOM
 70
     9
  0
SEQEND
  8
0
  0
INSERT
  8
RUN
  2
RUN
 10
144.480011
 20
300.000000
 30
-12.000000
 41
24.000000
 42
0.100000
 43
0.100000
 66
     1
  0
ATTRIB
  8
RUN
 10
156.480011
 20
300.000000
 30
-12.000000
 40
0.010000
  1
A312-TP304
  2
MAT
 70
     9
  0
ATTRIB
  8
RUN
 10
156.480011
 20
300.000000
 30
-12.000000
 40
0.010000
  1
10S
  2
SCH
 70
     9
  0
ATTRIB
  8
RUN
 10
156.480011
 20
300.000000
 30
-12.000000
 40
0.010000
  1
1.000000 inch
  2
NOM
 70
     9
  0
SEQEND
  8
0
  0
INSERT
  8
FLXJNT
  2
FLXJNT
 10
168.480011
 20
300.000000
 30
-12.000000
 41
6.000000
 42
1.315000
 43
1.315000
  0
INSERT
  8
POINT
  2
POINT
 10
120.000000
 20
120.000000
 30
0.000000
  0
TEXT
  8
PTATT
 10
120.000000
 20
121.656250
 30
0.000000
 40
0.250000
  1
A00
 50
0.000000
  0
INSERT
  8
ANCHOR
  2
ANCHOR
 10
120.000000
 20
120.000000
 30
0.000000
 41
10.000000
 42
10.000000
 43
10.000000
 50
90.000000
 66
     1
  0
ATTRIB
  8
ANCHOR
 10
120.000000
 20
120.000000
 30
0.000000
 40
0.010000
  1
0.000000 deg
  2
RZ3
 70
     9
 50
90.000000
  0
ATTRIB
  8
ANCHOR
 10
120.000000
 20
120.000000
 30
0.000000
 40
0.010000
  1
0.000000 deg
  2
RY3
 70
     9
 50
90.000000
  0
ATTRIB
  8
ANCHOR
 10
120.000000
 20
120.000000
 30
0.000000
 40
0.010000
  1
0.000000 deg
  2
RX3
 70
     9
 50
90.000000
  0
ATTRIB
  8
ANCHOR
 10
120.000000
 20
120.000000
 30
0.000000
 40
0.010000
  1
0.000000 inch
  2
DZ3
 70
     9
 50
90.000000
  0
ATTRIB
  8
ANCHOR
 10
120.000000
 20
120.000000
 30
0.000000
 40
0.010000
  1
0.000000 inch
  2
DY3
 70
     9
 50
90.000000
  0
ATTRIB
  8
ANCHOR
 10
120.000000
 20
120.000000
 30
0.000000
 40
0.010000
  1
0.000000 inch
  2
DX3
 70
     9
 50
90.000000
  0
ATTRIB
  8
ANCHOR
 10
120.000000
 20
120.000000
 30
0.000000
 40
0.010000
  1
0.000000 deg
  2
RZ2
 70
     9
 50
90.000000
  0
ATTRIB
  8
ANCHOR
 10
120.000000
 20
120.000000
 30
0.000000
 40
0.010000
  1
0.000000 deg
  2
RY2
 70
     9
 50
90.000000
  0
ATTRIB
  8
ANCHOR
 10
120.000000
 20
120.000000
 30
0.000000
 40
0.010000
  1
0.000000 deg
  2
RX2
 70
     9
 50
90.000000
  0
ATTRIB
  8
ANCHOR
 10
120.000000
 20
120.000000
 30
0.000000
 40
0.010000
  1
0.000000 inch
  2
DZ2
 70
     9
 50
90.000000
  0
ATTRIB
  8
ANCHOR
 10
120.000000
 20
120.000000
 30
0.000000
 40
0.010000
  1
0.000000 inch
  2
DY2
 70
     9
 50
90.000000
  0
ATTRIB
  8
ANCHOR
 10
120.000000
 20
120.000000
 30
0.000000
 40
0.010000
  1
0.000000 inch
  2
DX2
 70
     9
 50
90.000000
  0
ATTRIB
  8
ANCHOR
 10
120.000000
 20
120.000000
 30
0.000000
 40
0.010000
  1
0.000000 deg
  2
RZ1
 70
     9
 50
90.000000
  0
ATTRIB
  8
ANCHOR
 10
120.000000
 20
120.000000
 30
0.000000
 40
0.010000
  1
0.000000 deg
  2
RY1
 70
     9
 50
90.000000
  0
ATTRIB
  8
ANCHOR
 10
120.000000
 20
120.000000
 30
0.000000
 40
0.010000
  1
0.000000 deg
  2
RX1
 70
     9
 50
90.000000
  0
ATTRIB
  8
ANCHOR
 10
120.000000
 20
120.000000
 30
0.000000
 40
0.010000
  1
0.000000 inch
  2
DZ1
 70
     9
 50
90.000000
  0
ATTRIB
  8
ANCHOR
 10
120.000000
 20
120.000000
 30
0.000000
 40
0.010000
  1
0.000000 inch
  2
DY1
 70
     9
 50
90.000000
  0
ATTRIB
  8
ANCHOR
 10
120.000000
 20
120.000000
 30
0.000000
 40
0.010000
  1
0.000000 inch
  2
DX1
 70
     9
 50
90.000000
  0
ATTRIB
  8
ANCHOR
 10
120.000000
 20
120.000000
 30
0.000000
 40
0.010000
  1
RIGID
  2
ZSR
 70
     9
 50
90.000000
  0
ATTRIB
  8
ANCHOR
 10
120.000000
 20
120.000000
 30
0.000000
 40
0.010000
  1
RIGID
  2
YSR
 70
     9
 50
90.000000
  0
ATTRIB
  8
ANCHOR
 10
120.000000
 20
120.000000
 30
0.000000
 40
0.010000
  1
RIGID
  2
XSR
 70
     9
 50
90.000000
  0
ATTRIB
  8
ANCHOR
 10
120.000000
 20
120.000000
 30
0.000000
 40
0.010000
  1
RIGID
  2
ZST
 70
     9
 50
90.000000
  0
ATTRIB
  8
ANCHOR
 10
120.000000
 20
120.000000
 30
0.000000
 40
0.010000
  1
RIGID
  2
YST
 70
     9
 50
90.000000
  0
ATTRIB
  8
ANCHOR
 10
120.000000
 20
120.000000
 30
0.000000
 40
0.010000
  1
RIGID
  2
XST
 70
     9
 50
90.000000
  0
SEQEND
  8
0
  0
INSERT
  8
DISPL
  2
DELTA
 10
120.000000
 20
120.000000
 30
0.000000
 41
16.000000
 42
16.000000
 43
16.000000
 50
270.000000
 66
     1
  0
ATTRIB
  8
DISPL
 10
120.000000
 20
120.000000
 30
0.000000
 40
0.010000
  1
0.000000 deg
  2
ROT
 70
     9
 50
270.000000
  0
ATTRIB
  8
DISPL
 10
120.000000
 20
120.000000
 30
0.000000
 40
0.010000
  1
1.000000 inch
  2
DEL
 70
     9
 50
270.000000
  0
ATTRIB
  8
DISPL
 10
120.000000
 20
120.000000
 30
0.000000
 40
0.010000
  1
Gravity
  2
LCA
 70
     9
 50
270.000000
  0
SEQEND
  8
0
  0
INSERT
  8
DISPL
  2
DELTA
 10
-120.000000
 20
0.000000
 30
-120.000000
 41
16.000000
 42
16.000000
 43
16.000000
 50
90.000000
210
-1.0000000
220
0.0000000
230
0.0000000
 66
     1
  0
ATTRIB
  8
DISPL
 10
-120.000000
 20
0.000000
 30
-120.000000
 40
0.010000
  1
0.000000 deg
  2
ROT
 70
     9
 50
90.000000
210
-1.0000000
220
0.0000000
230
0.0000000
  0
ATTRIB
  8
DISPL
 10
-120.000000
 20
0.000000
 30
-120.000000
 40
0.010000
  1
1.000000 inch
  2
DEL
 70
     9
 50
90.000000
210
-1.0000000
220
0.0000000
230
0.0000000
  0
ATTRIB
  8
DISPL
 10
-120.000000
 20
0.000000
 30
-120.000000
 40
0.010000
  1
Gravity
  2
LCA
 70
     9
 50
90.000000
210
-1.0000000
220
0.0000000
230
0.0000000
  0
SEQEND
  8
0
  0
INSERT
  8
DISPL
  2
DELTA
 10
120.000000
 20
0.000000
 30
120.000000
 41
16.000000
 42
16.000000
 43
16.000000
 50
179.999984
210
1.0000000
220
0.0000000
230
0.0000000
 66
     1
  0
ATTRIB
  8
DISPL
 10
120.000000
 20
0.000000
 30
120.000000
 40
0.010000
  1
0.000000 deg
  2
ROT
 70
     9
 50
179.999984
210
1.0000000
220
0.0000000
230
0.0000000
  0
ATTRIB
  8
DISPL
 10
120.000000
 20
0.000000
 30
120.000000
 40
0.010000
  1
-1.000000 inch
  2
DEL
 70
     9
 50
179.999984
210
1.0000000
220
0.0000000
230
0.0000000
  0
ATTRIB
  8
DISPL
 10
120.000000
 20
0.000000
 30
120.000000
 40
0.010000
  1
Gravity
  2
LCA
 70
     9
 50
179.999984
210
1.0000000
220
0.0000000
230
0.0000000
  0
SEQEND
  8
0
  0
INSERT
  8
POINT
  2
POINT
 10
120.000000
 20
192.000000
 30
0.000000
  0
TEXT
  8
PTATT
 10
120.000000
 20
193.656250
 30
0.000000
 40
0.250000
  1
A01
 50
0.000000
  0
INSERT
  8
POINT
  2
POINT
 10
120.000000
 20
204.000000
 30
0.000000
  0
TEXT
  8
PTATT
 10
120.000000
 20
205.656250
 30
0.000000
 40
0.250000
  1
A02
 50
0.000000
  0
INSERT
  8
POINT
  2
POINT
 10
120.000000
 20
270.000000
 30
0.000000
  0
INSERT
  8
SUPPORT
  2
LINSTP
 10
-270.000000
 20
0.000000
 30
-120.000000
 41
16.562500
 42
16.562500
 43
16.562500
210
-1.0000000
220
0.0000000
230
0.0000000
 66
     1
  0
ATTRIB
  8
SUPPORT
 10
-270.000000
 20
0.000000
 30
-120.000000
 40
0.010000
  1
1234.0000000lb/in
  2
STF
 70
     9
210
-1.0000000
220
0.0000000
230
0.0000000
  0
ATTRIB
  8
SUPPORT
 10
-270.000000
 20
0.000000
 30
-120.000000
 40
0.010000
  1
0.100000 inch
  2
GBK
 70
     9
210
-1.0000000
220
0.0000000
230
0.0000000
  0
ATTRIB
  8
SUPPORT
 10
-270.000000
 20
0.000000
 30
-120.000000
 40
0.010000
  1
0.000000 inch
  2
GFO
 70
     9
210
-1.0000000
220
0.0000000
230
0.0000000
  0
ATTRIB
  8
SUPPORT
 10
-270.000000
 20
0.000000
 30
-120.000000
 40
0.010000
  1
@ Line stop@
  2
TYP
 70
     9
210
-1.0000000
220
0.0000000
230
0.0000000
  0
ATTRIB
  8
SUPPORT
 10
-270.000000
 20
0.000000
 30
-120.000000
 40
0.010000
  1
A03 N1
  2
SID
 70
     9
210
-1.0000000
220
0.0000000
230
0.0000000
  0
SEQEND
  8
0
  0
INSERT
  8
POINT
  2
BEND
 10
120.000000
 20
276.000000
 30
0.000000
 66
     1
  0
ATTRIB
  8
POINT
 10
0.000000
 20
0.000000
 30
0.000000
 40
0.010000
  1
SHORT
  2
RAD
 70
     9
  0
ATTRIB
  8
POINT
 10
0.000000
 20
0.000000
 30
0.000000
 40
0.010000
  1
6.000000 inch
  2
NOM
 70
     9
  0
ATTRIB
  8
POINT
 10
0.000000
 20
0.000000
 30
0.000000
 40
0.010000
  1
A106-A
  2
MAT
 70
     9
  0
ATTRIB
  8
POINT
 10
0.000000
 20
0.000000
 30
0.000000
 40
0.010000
  1
STD
  2
SCH
 70
     9
  0
SEQEND
  8
0
  0
TEXT
  8
PTATT
 10
120.000000
 20
277.656250
 30
0.000000
 40
0.250000
  1
A03
 50
0.000000
  0
INSERT
  8
POINT
  2
POINT
 10
120.000000
 20
276.000000
 30
6.000000
  0
INSERT
  8
POINT
  2
POINT
 10
120.000000
 20
276.000000
 30
36.000000
  0
TEXT
  8
PTATT
 10
120.000000
 20
277.656250
 30
36.000000
 40
0.250000
  1
A04
 50
0.000000
  0
INSERT
  8
POINT
  2
POINT
 10
120.000000
 20
276.000000
 30
48.000000
  0
TEXT
  8
PTATT
 10
120.000000
 20
276.593750
 30
48.000000
 40
0.250000
  1
A05
 50
0.000000
  0
INSERT
  8
POINT
  2
POINT
 10
120.000000
 20
276.000000
 30
84.000000
  0
TEXT
  8
PTATT
 10
120.000000
 20
276.593750
 30
84.000000
 40
0.250000
  1
A06
 50
0.000000
  0
INSERT
  8
POINT
  2
POINT
 10
120.000000
 20
276.000000
 30
93.000000
  0
INSERT
  8
POINT
  2
POINT
 10
96.000000
 20
276.000000
 30
60.000000
  0
TEXT
  8
PTATT
 10
96.000000
 20
276.593750
 30
60.000000
 40
0.250000
  1
A09
 50
0.000000
  0
INSERT
  8
FLANGE
  2
FLANGE
 10
-96.000000
 20
61.187500
 30
276.000000
 41
2.375000
 42
2.375000
 43
2.375000
 50
270.000000
210
0.0000000
220
1.0000000
230
0.0000000
 66
     1
  0
ATTRIB
  8
FLANGE
 10
96.000000
 20
276.000000
 30
58.812500
 40
0.010000
  1
9.000000 lb
  2
WGT
 70
     9
 50
270.000000
210
0.0000000
220
1.0000000
230
0.0000000
  0
ATTRIB
  8
FLANGE
 10
96.000000
 20
276.000000
 30
58.812500
 40
0.010000
  1
300
  2
RAT
 70
     9
 50
270.000000
210
0.0000000
220
1.0000000
230
0.0000000
  0
SEQEND
  8
0
  0
TEXT
  8
FLATT
 10
96.050003
 20
276.149993
 30
60.000000
 40
0.250000
  1
300
 50
0.000000
  0
INSERT
  8
POINT
  2
POINT
 10
96.000000
 20
276.000000
 30
24.000000
  0
TEXT
  8
PTATT
 10
96.000000
 20
276.593750
 30
24.000000
 40
0.250000
  1
A10
 50
0.000000
  0
INSERT
  8
FORCE
  2
FORCE
 10
-276.000000
 20
24.000000
 30
-96.000000
 41
16.000000
 42
16.000000
 43
16.000000
 50
90.000000
210
-1.0000000
220
0.0000000
230
0.0000000
 66
     1
  0
ATTRIB
  8
FORCE
 10
-276.000000
 20
24.000000
 30
-96.000000
 40
0.010000
  1
1000.000000 lbf
  2
FRC
 70
     9
 50
90.000000
210
-1.0000000
220
0.0000000
230
0.0000000
  0
ATTRIB
  8
FORCE
 10
-276.000000
 20
24.000000
 30
-96.000000
 40
0.010000
  1
Thermal 1
  2
LCA
 70
     9
 50
90.000000
210
-1.0000000
220
0.0000000
230
0.0000000
  0
SEQEND
  8
0
  0
INSERT
  8
FORCE
  2
MOMENT
 10
96.000000
 20
24.000000
 30
-276.000000
 41
16.000000
 42
16.000000
 43
16.000000
 50
90.000000
210
0.0000000
220
-1.0000000
230
0.0000000
 66
     1
  0
ATTRIB
  8
FORCE
 10
96.000000
 20
24.000000
 30
-276.000000
 40
0.010000
  1
Thermal 1
  2
LCA
 70
     9
 50
90.000000
210
0.0000000
220
-1.0000000
230
0.0000000
  0
ATTRIB
  8
FORCE
 10
96.000000
 20
24.000000
 30
-276.000000
 40
0.010000
  1
150.000000 ft-lb
  2
MOM
 70
     9
 50
90.000000
210
0.0000000
220
-1.0000000
230
0.0000000
  0
SEQEND
  8
0
  0
TEXT
  8
FRCATT
 10
96.050003
 20
276.149993
 30
24.000000
 40
0.250000
  1
1000.0
 50
0.000000
  0
INSERT
  8
POINT
  2
POINT
 10
96.000000
 20
276.000000
 30
-9.000000
  0
INSERT
  8
POINT
  2
BEND
 10
96.000000
 20
276.000000
 30
-12.000000
 66
     1
  0
ATTRIB
  8
POINT
 10
0.000000
 20
0.000000
 30
0.000000
 40
0.010000
  1
LONG
  2
RAD
 70
     9
  0
ATTRIB
  8
POINT
 10
0.000000
 20
0.000000
 30
0.000000
 40
0.010000
  1
2.000000 inch
  2
NOM
 70
     9
  0
ATTRIB
  8
POINT
 10
0.000000
 20
0.000000
 30
0.000000
 40
0.010000
  1
A106-A
  2
MAT
 70
     9
  0
ATTRIB
  8
POINT
 10
0.000000
 20
0.000000
 30
0.000000
 40
0.010000
  1
40
  2
SCH
 70
     9
  0
SEQEND
  8
0
  0
TEXT
  8
PTATT
 10
96.000000
 20
276.593750
 30
-12.000000
 40
0.250000
  1
A11
 50
0.000000
  0
INSERT
  8
POINT
  2
POINT
 10
96.000000
 20
279.000000
 30
-12.000000
  0
INSERT
  8
POINT
  2
POINT
 10
96.000000
 20
300.000000
 30
-12.000000
  0
TEXT
  8
PTATT
 10
96.000000
 20
300.593750
 30
-12.000000
 40
0.250000
  1
A12
 50
0.000000
  0
INSERT
  8
SUPPORT
  2
YSTOP
 10
-300.000000
 20
-12.000000
 30
-96.000000
 41
5.937500
 42
5.937500
 43
5.937500
210
-1.0000000
220
0.0000000
230
0.0000000
 66
     1
  0
ATTRIB
  8
SUPPORT
 10
-300.000000
 20
-12.000000
 30
-96.000000
 40
0.010000
  1
0.2500000
  2
FCF
 70
     9
210
-1.0000000
220
0.0000000
230
0.0000000
  0
ATTRIB
  8
SUPPORT
 10
-300.000000
 20
-12.000000
 30
-96.000000
 40
0.010000
  1
0.001000 inch
  2
GDN
 70
     9
210
-1.0000000
220
0.0000000
230
0.0000000
  0
ATTRIB
  8
SUPPORT
 10
-300.000000
 20
-12.000000
 30
-96.000000
 40
0.010000
  1
0.100000 inch
  2
GUP
 70
     9
210
-1.0000000
220
0.0000000
230
0.0000000
  0
ATTRIB
  8
SUPPORT
 10
-300.000000
 20
-12.000000
 30
-96.000000
 40
0.010000
  1
@ V - Stop@
  2
TYP
 70
     9
210
-1.0000000
220
0.0000000
230
0.0000000
  0
ATTRIB
  8
SUPPORT
 10
-300.000000
 20
-12.000000
 30
-96.000000
 40
0.010000
  1
A12  1
  2
SID
 70
     9
210
-1.0000000
220
0.0000000
230
0.0000000
  0
SEQEND
  8
0
  0
INSERT
  8
POINT
  2
POINT
 10
96.000000
 20
321.000000
 30
-12.000000
  0
INSERT
  8
POINT
  2
BEND
 10
96.000000
 20
324.000000
 30
-12.000000
 66
     1
  0
ATTRIB
  8
POINT
 10
0.000000
 20
0.000000
 30
0.000000
 40
0.010000
  1
LONG
  2
RAD
 70
     9
  0
ATTRIB
  8
POINT
 10
0.000000
 20
0.000000
 30
0.000000
 40
0.010000
  1
2.000000 inch
  2
NOM
 70
     9
  0
ATTRIB
  8
POINT
 10
0.000000
 20
0.000000
 30
0.000000
 40
0.010000
  1
A106-A
  2
MAT
 70
     9
  0
ATTRIB
  8
POINT
 10
0.000000
 20
0.000000
 30
0.000000
 40
0.010000
  1
40
  2
SCH
 70
     9
  0
SEQEND
  8
0
  0
TEXT
  8
PTATT
 10
96.000000
 20
324.593750
 30
-12.000000
 40
0.250000
  1
A13
 50
0.000000
  0
INSERT
  8
POINT
  2
POINT
 10
96.000000
 20
324.000000
 30
-9.000000
  0
INSERT
  8
POINT
  2
POINT
 10
96.000000
 20
324.000000
 30
36.000000
  0
TEXT
  8
PTATT
 10
96.000000
 20
324.593750
 30
36.000000
 40
0.250000
  1
A14
 50
0.000000
  0
INSERT
  8
SUPPORT
  2
INCLINED
 10
-96.000000
 20
36.000000
 30
324.000000
 41
5.937500
 42
5.937500
 43
5.937500
 50
314.999969
210
0.0000000
220
1.0000000
230
0.0000000
 66
     1
  0
ATTRIB
  8
SUPPORT
 10
-96.000000
 20
36.000000
 30
324.000000
 40
0.010000
  1
-1.0000000lb/in
  2
RAT
 70
     9
 50
314.999969
210
0.0000000
220
1.0000000
230
0.0000000
  0
ATTRIB
  8
SUPPORT
 10
-96.000000
 20
36.000000
 30
324.000000
 40
0.010000
  1
0.001000 inch
  2
GBK
 70
     9
 50
314.999969
210
0.0000000
220
1.0000000
230
0.0000000
  0
ATTRIB
  8
SUPPORT
 10
-96.000000
 20
36.000000
 30
324.000000
 40
0.010000
  1
0.100000 inch
  2
GFO
 70
     9
 50
314.999969
210
0.0000000
220
1.0000000
230
0.0000000
  0
ATTRIB
  8
SUPPORT
 10
-96.000000
 20
36.000000
 30
324.000000
 40
0.010000
  1
@ Inclined support@
  2
TYP
 70
     9
 50
314.999969
210
0.0000000
220
1.0000000
230
0.0000000
  0
ATTRIB
  8
SUPPORT
 10
-96.000000
 20
36.000000
 30
324.000000
 40
0.010000
  1
A14  1
  2
SID
 70
     9
 50
314.999969
210
0.0000000
220
1.0000000
230
0.0000000
  0
SEQEND
  8
0
  0
INSERT
  8
POINT
  2
POINT
 10
96.000000
 20
324.000000
 30
66.000000
  0
TEXT
  8
PTATT
 10
96.000000
 20
324.593750
 30
66.000000
 40
0.250000
  1
A15
 50
0.000000
  0
INSERT
  8
SUPPORT
  2
RESTRNT
 10
324.000000
 20
66.000000
 30
96.000000
 41
5.937500
 42
5.937500
 43
5.937500
 50
270.000000
210
1.0000000
220
0.0000000
230
0.0000000
 66
     1
  0
ATTRIB
  8
SUPPORT
 10
324.000000
 20
66.000000
 30
96.000000
 40
0.010000
  1
1200.0000000ft-lb/deg
  2
RST
 70
     9
 50
270.000000
210
1.0000000
220
0.0000000
230
0.0000000
  0
ATTRIB
  8
SUPPORT
 10
324.000000
 20
66.000000
 30
96.000000
 40
0.010000
  1
@ Rotational@
  2
TYP
 70
     9
 50
270.000000
210
1.0000000
220
0.0000000
230
0.0000000
  0
ATTRIB
  8
SUPPORT
 10
324.000000
 20
66.000000
 30
96.000000
 40
0.010000
  1
A15  1
  2
SID
 70
     9
 50
270.000000
210
1.0000000
220
0.0000000
230
0.0000000
  0
SEQEND
  8
0
  0
INSERT
  8
POINT
  2
POINT
 10
96.000000
 20
324.000000
 30
93.000000
  0
INSERT
  8
POINT
  2
BEND
 10
96.000000
 20
324.000000
 30
96.000000
 66
     1
  0
ATTRIB
  8
POINT
 10
0.000000
 20
0.000000
 30
0.000000
 40
0.010000
  1
LONG
  2
RAD
 70
     9
  0
ATTRIB
  8
POINT
 10
0.000000
 20
0.000000
 30
0.000000
 40
0.010000
  1
2.000000 inch
  2
NOM
 70
     9
  0
ATTRIB
  8
POINT
 10
0.000000
 20
0.000000
 30
0.000000
 40
0.010000
  1
A106-A
  2
MAT
 70
     9
  0
ATTRIB
  8
POINT
 10
0.000000
 20
0.000000
 30
0.000000
 40
0.010000
  1
40
  2
SCH
 70
     9
  0
SEQEND
  8
0
  0
TEXT
  8
PTATT
 10
96.000000
 20
324.593750
 30
96.000000
 40
0.250000
  1
A16
 50
0.000000
  0
INSERT
  8
POINT
  2
POINT
 10
93.000000
 20
324.000000
 30
96.000000
  0
INSERT
  8
POINT
  2
POINT
 10
96.000000
 20
300.000000
 30
-12.000000
  0
TEXT
  8
PTATT
 10
96.000000
 20
300.328735
 30
-12.000000
 40
0.250000
  1
A12
 50
0.000000
  0
INSERT
  8
POINT
  2
POINT
 10
114.000000
 20
300.000000
 30
-12.000000
  0
TEXT
  8
PTATT
 10
114.000000
 20
300.328735
 30
-12.000000
 40
0.250000
  1
B01
 50
0.000000
  0
INSERT
  8
POINT
  2
POINT
 10
117.240005
 20
300.000000
 30
-12.000000
  0
TEXT
  8
PTATT
 10
117.240005
 20
300.328735
 30
-12.000000
 40
0.250000
  1
B01
 50
0.000000
  0
INSERT
  8
POINT
  2
POINT
 10
120.480003
 20
300.000000
 30
-12.000000
  0
TEXT
  8
PTATT
 10
120.480003
 20
300.328735
 30
-12.000000
 40
0.250000
  1
B02
 50
0.000000
  0
INSERT
  8
POINT
  2
POINT
 10
144.480011
 20
300.000000
 30
-12.000000
  0
TEXT
  8
PTATT
 10
144.480011
 20
300.328735
 30
-12.000000
 40
0.250000
  1
B03
 50
0.000000
  0
INSERT
  8
WEIGHT
  2
WEIGHT
 10
144.480011
 20
-12.000000
 30
-300.000000
 41
16.000000
 42
16.000000
 43
16.000000
 50
179.999984
210
0.0000000
220
-1.0000000
230
0.0000000
  0
TEXT
  8
WTATT
 10
144.530014
 20
300.149993
 30
-12.000000
 40
0.250000
  1
 250.0
 50
0.000000
  0
INSERT
  8
POINT
  2
POINT
 10
168.480011
 20
300.000000
 30
-12.000000
  0
TEXT
  8
PTATT
 10
168.480011
 20
300.328735
 30
-12.000000
 40
0.250000
  1
B04
 50
0.000000
  0
INSERT
  8
POINT
  2
POINT
 10
174.480011
 20
300.000000
 30
-12.000000
  0
TEXT
  8
PTATT
 10
174.480011
 20
300.328735
 30
-12.000000
 40
0.250000
  1
B05
 50
0.000000
  0
INSERT
  8
ANCHOR
  2
ANCHOR
 10
174.480011
 20
300.000000
 30
-12.000000
 41
10.000000
 42
10.000000
 43
10.000000
 50
180.000000
 66
     1
  0
ATTRIB
  8
ANCHOR
 10
174.480011
 20
300.000000
 30
-12.000000
 40
0.010000
  1
0.000000 deg
  2
RZ3
 70
     9
 50
180.000000
  0
ATTRIB
  8
ANCHOR
 10
174.480011
 20
300.000000
 30
-12.000000
 40
0.010000
  1
0.000000 deg
  2
RY3
 70
     9
 50
180.000000
  0
ATTRIB
  8
ANCHOR
 10
174.480011
 20
300.000000
 30
-12.000000
 40
0.010000
  1
0.000000 deg
  2
RX3
 70
     9
 50
180.000000
  0
ATTRIB
  8
ANCHOR
 10
174.480011
 20
300.000000
 30
-12.000000
 40
0.010000
  1
0.000000 inch
  2
DZ3
 70
     9
 50
180.000000
  0
ATTRIB
  8
ANCHOR
 10
174.480011
 20
300.000000
 30
-12.000000
 40
0.010000
  1
0.000000 inch
  2
DY3
 70
     9
 50
180.000000
  0
ATTRIB
  8
ANCHOR
 10
174.480011
 20
300.000000
 30
-12.000000
 40
0.010000
  1
0.000000 inch
  2
DX3
 70
     9
 50
180.000000
  0
ATTRIB
  8
ANCHOR
 10
174.480011
 20
300.000000
 30
-12.000000
 40
0.010000
  1
0.000000 deg
  2
RZ2
 70
     9
 50
180.000000
  0
ATTRIB
  8
ANCHOR
 10
174.480011
 20
300.000000
 30
-12.000000
 40
0.010000
  1
0.000000 deg
  2
RY2
 70
     9
 50
180.000000
  0
ATTRIB
  8
ANCHOR
 10
174.480011
 20
300.000000
 30
-12.000000
 40
0.010000
  1
0.000000 deg
  2
RX2
 70
     9
 50
180.000000
  0
ATTRIB
  8
ANCHOR
 10
174.480011
 20
300.000000
 30
-12.000000
 40
0.010000
  1
0.000000 inch
  2
DZ2
 70
     9
 50
180.000000
  0
ATTRIB
  8
ANCHOR
 10
174.480011
 20
300.000000
 30
-12.000000
 40
0.010000
  1
0.000000 inch
  2
DY2
 70
     9
 50
180.000000
  0
ATTRIB
  8
ANCHOR
 10
174.480011
 20
300.000000
 30
-12.000000
 40
0.010000
  1
0.000000 inch
  2
DX2
 70
     9
 50
180.000000
  0
ATTRIB
  8
ANCHOR
 10
174.480011
 20
300.000000
 30
-12.000000
 40
0.010000
  1
0.000000 deg
  2
RZ1
 70
     9
 50
180.000000
  0
ATTRIB
  8
ANCHOR
 10
174.480011
 20
300.000000
 30
-12.000000
 40
0.010000
  1
0.000000 deg
  2
RY1
 70
     9
 50
180.000000
  0
ATTRIB
  8
ANCHOR
 10
174.480011
 20
300.000000
 30
-12.000000
 40
0.010000
  1
0.000000 deg
  2
RX1
 70
     9
 50
180.000000
  0
ATTRIB
  8
ANCHOR
 10
174.480011
 20
300.000000
 30
-12.000000
 40
0.010000
  1
0.000000 inch
  2
DZ1
 70
     9
 50
180.000000
  0
ATTRIB
  8
ANCHOR
 10
174.480011
 20
300.000000
 30
-12.000000
 40
0.010000
  1
0.000000 inch
  2
DY1
 70
     9
 50
180.000000
  0
ATTRIB
  8
ANCHOR
 10
174.480011
 20
300.000000
 30
-12.000000
 40
0.010000
  1
0.000000 inch
  2
DX1
 70
     9
 50
180.000000
  0
ATTRIB
  8
ANCHOR
 10
174.480011
 20
300.000000
 30
-12.000000
 40
0.010000
  1
RIGID
  2
ZSR
 70
     9
 50
180.000000
  0
ATTRIB
  8
ANCHOR
 10
174.480011
 20
300.000000
 30
-12.000000
 40
0.010000
  1
RIGID
  2
YSR
 70
     9
 50
180.000000
  0
ATTRIB
  8
ANCHOR
 10
174.480011
 20
300.000000
 30
-12.000000
 40
0.010000
  1
0.000000 ft-lb/deg
  2
XSR
 70
     9
 50
180.000000
  0
ATTRIB
  8
ANCHOR
 10
174.480011
 20
300.000000
 30
-12.000000
 40
0.010000
  1
RIGID
  2
ZST
 70
     9
 50
180.000000
  0
ATTRIB
  8
ANCHOR
 10
174.480011
 20
300.000000
 30
-12.000000
 40
0.010000
  1
10000.000000 lb/in
  2
YST
 70
     9
 50
180.000000
  0
ATTRIB
  8
ANCHOR
 10
174.480011
 20
300.000000
 30
-12.000000
 40
0.010000
  1
RIGID
  2
XST
 70
     9
 50
180.000000
  0
SEQEND
  8
0
  0
INSERT
  8
FRAME
  2
FRAME
 10
60.000000
 20
324.000000
 30
84.000000
 41
48.000000
 42
0.100000
 43
0.100000
 50
90.000000
 66
     1
  0
ATTRIB
  8
FRAME
 10
60.000000
 20
348.000000
 30
84.000000
 40
0.010000
  1
 
  2
MAT
 70
     9
 50
90.000000
  0
ATTRIB
  8
FRAME
 10
60.000000
 20
348.000000
 30
84.000000
 40
0.010000
  1
1 S18X54.7
  2
XID
 70
     9
 50
90.000000
  0
SEQEND
  8
0
  0
TEXT
  8
FRMATT
 10
60.049999
 20
348.149993
 30
84.000000
 40
0.250000
  1
M1
 50
0.000000
  0
INSERT
  8
POINT
  2
POINT
 10
60.000000
 20
324.000000
 30
84.000000
  0
TEXT
  8
PTATT
 10
60.000000
 20
328.500000
 30
84.000000
 40
0.250000
  1
F17
 50
0.000000
  0
INSERT
  8
ANCHOR
  2
ANCHOR
 10
60.000000
 20
372.000000
 30
84.000000
 41
10.000000
 42
10.000000
 43
10.000000
 50
270.000000
 66
     1
  0
ATTRIB
  8
ANCHOR
 10
60.000000
 20
372.000000
 30
84.000000
 40
0.010000
  1
0.000000 deg
  2
RZ3
 70
     9
 50
270.000000
  0
ATTRIB
  8
ANCHOR
 10
60.000000
 20
372.000000
 30
84.000000
 40
0.010000
  1
0.000000 deg
  2
RY3
 70
     9
 50
270.000000
  0
ATTRIB
  8
ANCHOR
 10
60.000000
 20
372.000000
 30
84.000000
 40
0.010000
  1
0.000000 deg
  2
RX3
 70
     9
 50
270.000000
  0
ATTRIB
  8
ANCHOR
 10
60.000000
 20
372.000000
 30
84.000000
 40
0.010000
  1
0.000000 inch
  2
DZ3
 70
     9
 50
270.000000
  0
ATTRIB
  8
ANCHOR
 10
60.000000
 20
372.000000
 30
84.000000
 40
0.010000
  1
0.000000 inch
  2
DY3
 70
     9
 50
270.000000
  0
ATTRIB
  8
ANCHOR
 10
60.000000
 20
372.000000
 30
84.000000
 40
0.010000
  1
0.000000 inch
  2
DX3
 70
     9
 50
270.000000
  0
ATTRIB
  8
ANCHOR
 10
60.000000
 20
372.000000
 30
84.000000
 40
0.010000
  1
0.000000 deg
  2
RZ2
 70
     9
 50
270.000000
  0
ATTRIB
  8
ANCHOR
 10
60.000000
 20
372.000000
 30
84.000000
 40
0.010000
  1
0.000000 deg
  2
RY2
 70
     9
 50
270.000000
  0
ATTRIB
  8
ANCHOR
 10
60.000000
 20
372.000000
 30
84.000000
 40
0.010000
  1
0.000000 deg
  2
RX2
 70
     9
 50
270.000000
  0
ATTRIB
  8
ANCHOR
 10
60.000000
 20
372.000000
 30
84.000000
 40
0.010000
  1
0.000000 inch
  2
DZ2
 70
     9
 50
270.000000
  0
ATTRIB
  8
ANCHOR
 10
60.000000
 20
372.000000
 30
84.000000
 40
0.010000
  1
0.000000 inch
  2
DY2
 70
     9
 50
270.000000
  0
ATTRIB
  8
ANCHOR
 10
60.000000
 20
372.000000
 30
84.000000
 40
0.010000
  1
0.000000 inch
  2
DX2
 70
     9
 50
270.000000
  0
ATTRIB
  8
ANCHOR
 10
60.000000
 20
372.000000
 30
84.000000
 40
0.010000
  1
0.000000 deg
  2
RZ1
 70
     9
 50
270.000000
  0
ATTRIB
  8
ANCHOR
 10
60.000000
 20
372.000000
 30
84.000000
 40
0.010000
  1
0.000000 deg
  2
RY1
 70
     9
 50
270.000000
  0
ATTRIB
  8
ANCHOR
 10
60.000000
 20
372.000000
 30
84.000000
 40
0.010000
  1
0.000000 deg
  2
RX1
 70
     9
 50
270.000000
  0
ATTRIB
  8
ANCHOR
 10
60.000000
 20
372.000000
 30
84.000000
 40
0.010000
  1
0.000000 inch
  2
DZ1
 70
     9
 50
270.000000
  0
ATTRIB
  8
ANCHOR
 10
60.000000
 20
372.000000
 30
84.000000
 40
0.010000
  1
0.000000 inch
  2
DY1
 70
     9
 50
270.000000
  0
ATTRIB
  8
ANCHOR
 10
60.000000
 20
372.000000
 30
84.000000
 40
0.010000
  1
0.000000 inch
  2
DX1
 70
     9
 50
270.000000
  0
ATTRIB
  8
ANCHOR
 10
60.000000
 20
372.000000
 30
84.000000
 40
0.010000
  1
RIGID
  2
ZSR
 70
     9
 50
270.000000
  0
ATTRIB
  8
ANCHOR
 10
60.000000
 20
372.000000
 30
84.000000
 40
0.010000
  1
RIGID
  2
YSR
 70
     9
 50
270.000000
  0
ATTRIB
  8
ANCHOR
 10
60.000000
 20
372.000000
 30
84.000000
 40
0.010000
  1
RIGID
  2
XSR
 70
     9
 50
270.000000
  0
ATTRIB
  8
ANCHOR
 10
60.000000
 20
372.000000
 30
84.000000
 40
0.010000
  1
RIGID
  2
ZST
 70
     9
 50
270.000000
  0
ATTRIB
  8
ANCHOR
 10
60.000000
 20
372.000000
 30
84.000000
 40
0.010000
  1
RIGID
  2
YST
 70
     9
 50
270.000000
  0
ATTRIB
  8
ANCHOR
 10
60.000000
 20
372.000000
 30
84.000000
 40
0.010000
  1
RIGID
  2
XST
 70
     9
 50
270.000000
  0
SEQEND
  8
0
  0
INSERT
  8
POINT
  2
POINT
 10
60.000000
 20
372.000000
 30
84.000000
  0
TEXT
  8
PTATT
 10
60.000000
 20
376.500000
 30
84.000000
 40
0.250000
  1
F20
 50
0.000000
  0
ENDSEC
  0
EOF
